<?xml version="1.0" standalone="no"?>
<!DOCTYPE svg PUBLIC "-//W3C//DTD SVG 1.1//EN" "http://www.w3.org/Graphics/SVG/1.1/DTD/svg11.dtd">
<svg xmlns="http://www.w3.org/2000/svg">
<defs >
<font id="Exo2" horiz-adv-x="547" ><font-face
    font-family="Exo 2 ExtraLight"
    units-per-em="1000"
    panose-1="0 0 3 0 0 0 0 0 0 0"
    ascent="999"
    descent="-201"
    alphabetic="0" />
<glyph unicode=" " glyph-name="space" horiz-adv-x="228" />
<glyph unicode="!" glyph-name="exclam" horiz-adv-x="258" d="M149 363L146 205H113L109 363V695H149V363ZM153 94T153 77V17Q153 0 136 0H123Q106 0 106 17V77Q106 94 123 94H136Q153 94 153 77Z" />
<glyph unicode="&quot;" glyph-name="quotedbl" horiz-adv-x="334" d="M116 480H86L83 690H119L116 480ZM248 480H218L215 690H250L248 480Z" />
<glyph unicode="#" glyph-name="numbersign" horiz-adv-x="672" d="M501 464L464 255H573L568 224H459L420 0H384L423 224H208L169 0H133L172 224H56L62 255H177L214 464H98L104 495H219L253 690H289L255 495H470L504 690H540L506 495H615L610 464H501ZM465 464H250L213
255H428L465 464Z" />
<glyph unicode="$" glyph-name="dollar" horiz-adv-x="560" d="M437 344T468 302T500 171Q500 92 477 53T408 2T284 -11H276L269 -133H241L248 -11Q162 -9 77 2L81 33Q188 27 251 27L269 331L201 342Q129 353 98 396T66 523Q66 603 88 641T154 691T278 701H292L298
803H325L319 700Q400 697 470 687L466 657L317 664L300 365L360 355Q437 344 468 302ZM107 452T130 421T211 380L272 370L290 664H279Q208 664 175 657T124 620T107 522Q107 452 130 421ZM353 28T389 38T441 78T458 171Q458 222 448 251T414 296T351 317L296 326L278
27H285Q353 28 389 38Z" />
<glyph unicode="%" glyph-name="percent" horiz-adv-x="886" d="M294 702T328 654T363 498Q363 390 329 342T210 294Q126 294 92 342T57 498Q57 606 91 654T210 702Q294 702 328 654ZM222 0H189L660 690H694L222 0ZM144 674T118 634T91 498Q91 403 117 363T210
322Q276 322 302 362T329 498Q329 593 303 633T210 674Q144 674 118 634ZM759 401T793 353T828 197Q828 88 794 40T676 -8Q592 -8 558 40T523 197Q523 305 557 353T676 401Q759 401 793 353ZM609 373T583 333T557 197Q557 102 583 61T675 20Q741 20 767 61T794
197Q794 292 768 332T675 373Q609 373 583 333Z" />
<glyph unicode="&amp;" glyph-name="ampersand" horiz-adv-x="780" d="M726 1Q707 -2 680 -4T635 -7Q581 -7 553 18T522 91Q475 37 418 14T276 -9Q203 -9 160 8T97 64T77 174Q77 258 108 304T213 356V360Q151 365 124 405T97 521Q97 599 123 637T203 687T355 699Q444
699 514 690L508 660Q477 663 353 663Q267 663 223 653T159 612T139 517Q139 459 154 429T205 386T304 374H522L529 523H561V374H698L695 341H561V105Q561 29 637 29H721L726 1ZM365 28T421 53T522 134V341H303Q234 341 195 327T138 277T120 178Q120 120 135 88T184
42T280 28Q365 28 421 53Z" />
<glyph unicode="&apos;" glyph-name="quotesingle" horiz-adv-x="202" d="M116 480H86L83 690H119L116 480Z" />
<glyph unicode="(" glyph-name="parenleft" horiz-adv-x="356" d="M315 766Q207 711 157 601T106 313Q106 138 156 28T315 -141L309 -165Q183 -109 124 7T65 312Q65 503 124 619T309 790L315 766Z" />
<glyph unicode=")" glyph-name="parenright" horiz-adv-x="356" d="M173 735T232 619T291 312Q291 123 232 7T47 -165L42 -141Q149 -83 199 27T250 313Q250 490 200 600T42 766L47 790Q173 735 232 619Z" />
<glyph unicode="*" glyph-name="asterisk" horiz-adv-x="452" d="M236 535L332 406L308 389L226 513L144 390L119 407L215 535L211 690H242L236 535ZM199 550L198 537L192 528L67 565L78 594L199 550ZM386 564L259 528L253 537V550L376 593L386 564Z" />
<glyph unicode="+" glyph-name="plus" horiz-adv-x="552" d="M487 281H292V97H260V281H65V314H259V498H293V314H487V281Z" />
<glyph unicode="," glyph-name="comma" horiz-adv-x="213" d="M131 94T131 77V13Q130 -19 124 -55T108 -121L89 -114Q94 -64 94 0Q89 0 86 4T83 15L84 77V79Q84 94 101 94H114Q131 94 131 77Z" />
<glyph unicode="-" glyph-name="hyphen" horiz-adv-x="474" d="M392 235H82V268H392V235Z" />
<glyph unicode="." glyph-name="period" horiz-adv-x="212" d="M130 94T130 77V17Q130 0 113 0H99Q81 0 81 17V77Q81 94 99 94H113Q130 94 130 77Z" />
<glyph unicode="/" glyph-name="slash" horiz-adv-x="500" d="M72 -61H35L428 690H465L72 -61Z" />
<glyph unicode="0" glyph-name="zero" horiz-adv-x="589" d="M376 702T424 664T494 549T515 345Q515 219 494 142T425 26T294 -12Q212 -12 164 26T95 141T74 345Q74 471 95 548T164 664T294 702Q376 702 424 664ZM227 665T188 632T132 529T115 345Q115 231 132
162T188 59T294 25Q361 25 400 58T457 161T474 345Q474 459 457 528T401 631T294 665Q227 665 188 632Z" />
<glyph unicode="1" glyph-name="one" horiz-adv-x="383" d="M260 0H219V600Q219 625 222 649L40 589L33 618L219 690H260V0Z" />
<glyph unicode="2" glyph-name="two" horiz-adv-x="558" d="M337 702T380 691T446 650T470 561Q470 495 439 437T335 293L112 37Q150 38 229 38H499V0H60V25Q60 37 67 45L297 309Q365 386 396 444T427 558Q427 604 408 627T356 657T268 665Q218 665 176 661T72
644L66 675Q133 691 176 696T266 702Q337 702 380 691Z" />
<glyph unicode="3" glyph-name="three" horiz-adv-x="553" d="M328 702T372 688T437 639T458 543Q458 391 351 369V365Q420 354 448 308T477 185Q477 84 429 36T267 -12Q184 -12 59 5L65 37Q185 25 260 25Q354 25 395 63T436 194Q436 265 402 306T273 348L145
349V380L273 382Q361 384 389 427T418 537Q416 589 400 616T349 654T247 665Q158 665 76 654L69 685Q168 702 250 702Q328 702 372 688Z" />
<glyph unicode="4" glyph-name="four" horiz-adv-x="600" d="M548 194L464 190V0H424V189H107Q82 189 66 205T49 246Q49 261 56 275L272 690H314L96 271Q91 261 91 253Q91 240 100 232T124 224H424V443L433 559H464V224H548V194Z" />
<glyph unicode="5" glyph-name="five" horiz-adv-x="529" d="M440 654H136L125 409L185 408Q290 405 348 389T435 330T464 204Q464 140 449 94T386 18T250 -12Q166 -12 62 15L69 47Q115 36 162 30T243 24Q316 24 355 45T409 105T424 204Q424 282 396 317T309 362T128
373L105 374Q97 375 92 380T87 395L102 690H444L440 654Z" />
<glyph unicode="6" glyph-name="six" horiz-adv-x="566" d="M387 443T427 421T485 349T502 210Q502 134 487 87T427 14T295 -12Q202 -12 156 18T94 115T77 309Q77 478 102 561T181 673T334 702Q408 702 458 689L450 659Q423 664 402 665T334 666Q251 666 207 643T142
553T119 351Q162 403 205 423T315 443Q387 443 427 421ZM366 24T402 45T450 106T462 213Q462 287 449 328T403 389T307 409Q252 409 210 390T119 319V306Q119 194 131 137T180 52T296 24Q366 24 402 45Z" />
<glyph unicode="7" glyph-name="seven" horiz-adv-x="507" d="M464 690T464 665Q464 655 460 644L237 0H196L408 613L423 654H48L46 690H426Q464 690 464 665Z" />
<glyph unicode="8" glyph-name="eight" horiz-adv-x="610" d="M388 699T433 680T497 623T515 518Q515 444 492 405T416 360V356Q478 349 503 305T529 172Q529 104 510 66T443 9T305 -9Q216 -9 168 9T101 65T81 172Q81 261 106 305T194 356V360Q142 366 119 405T95
518Q95 583 113 622T177 680T305 699Q388 699 433 680ZM236 663T200 649T149 604T135 516Q135 455 149 426T198 386T307 375Q381 375 415 386T463 426T476 516Q476 573 463 604T413 649T306 663Q236 663 200 649ZM227 340T189 328T136 283T121 177Q121 121 136
90T191 44T306 29Q380 29 419 43T474 89T489 177Q489 249 474 283T422 329T307 341Q227 340 189 328Z" />
<glyph unicode="9" glyph-name="nine" horiz-adv-x="567" d="M370 702T414 671T472 570T486 354Q486 198 461 120T382 15T229 -12Q153 -12 98 1L106 31Q138 27 164 26T229 25Q312 25 357 48T423 139T445 341Q402 288 359 268T249 247Q149 247 107 303T64 472Q64
589 109 645T272 702Q370 702 414 671ZM312 281T354 300T445 372Q445 496 435 554T389 639T271 666Q205 666 169 644T118 579T104 470Q104 374 138 328T257 281Q312 281 354 300Z" />
<glyph unicode=":" glyph-name="colon" horiz-adv-x="214" d="M130 432T130 415V355Q130 338 113 338H99Q81 338 81 355V415Q81 432 99 432H113Q130 432 130 415ZM130 94T130 77V17Q130 0 113 0H99Q81 0 81 17V77Q81 94 99 94H113Q130 94 130 77Z" />
<glyph unicode=";" glyph-name="semicolon" horiz-adv-x="216" d="M131 432T131 415V355Q131 338 114 338H100Q82 338 82 355V415Q82 432 100 432H114Q131 432 131 415ZM132 94T132 77V13Q131 -19 125 -55T109 -121L90 -114Q95 -64 95 0Q90 0 87 4T84 15L85 77V79Q85
94 102 94H115Q132 94 132 77Z" />
<glyph unicode="&lt;" glyph-name="less" horiz-adv-x="538" d="M458 459L99 296L458 137V103L62 279V313L458 493V459Z" />
<glyph unicode="=" glyph-name="equal" horiz-adv-x="588" d="M505 380H83V413H505V380ZM505 168H83V201H505V168Z" />
<glyph unicode="&gt;" glyph-name="greater" horiz-adv-x="538" d="M476 313V279L80 103V137L439 296L80 459V493L476 313Z" />
<glyph unicode="?" glyph-name="question" horiz-adv-x="506" d="M452 712T452 557Q452 508 430 473T363 395Q330 362 311 338T278 281T264 205H228Q228 254 242 291T276 353T331 413Q372 453 391 482T411 553Q411 617 372 647T250 677Q183 677 151 675T52 664L47
693L71 697Q117 705 152 708T255 712Q452 712 452 557ZM269 94T269 77V17Q269 0 252 0H239Q222 0 222 17V77Q222 94 239 94H252Q269 94 269 77Z" />
<glyph unicode="@" glyph-name="at" horiz-adv-x="699" d="M618 572T618 448V130H589L583 209Q548 178 485 151T360 124Q301 124 268 152T234 233V286Q234 333 264 359T349 385H581V447Q581 490 558 514T477 537H342Q239 537 198 522T143 453T128 265Q128 126
143 71T205 1T368 -15H613V-46Q433 -50 343 -50Q224 -50 173 -28T106 57T89 265Q89 409 105 469T171 550T341 572H482Q618 572 618 448ZM356 355Q273 352 273 283V237Q273 158 366 158Q418 158 479 181T581 238V359L356 355Z" />
<glyph unicode="A" glyph-name="A" horiz-adv-x="608" d="M463 243H145L60 0H17L258 677Q263 690 276 690H332Q345 690 350 677L591 0H548L463 243ZM450 279L338 600L318 656H290L270 600L158 279H450Z" />
<glyph unicode="B" glyph-name="B" horiz-adv-x="614" d="M482 349T513 304T545 172Q545 101 524 62T458 8T331 -8Q245 -8 198 -7T99 0V690Q145 695 186 696T301 698Q386 698 434 683T503 628T525 518Q525 443 497 405T408 360V356Q482 349 513 304ZM483 575T466
606T410 650T300 662Q210 662 140 660V374H318Q382 375 417 386T467 428T483 515Q483 575 466 606ZM395 28T432 40T486 84T503 176Q503 241 485 276T428 325T318 341H140V30Q218 28 327 28Q395 28 432 40Z" />
<glyph unicode="C" glyph-name="C" horiz-adv-x="563" d="M391 702T429 698T509 684L502 654Q458 660 423 662T331 665Q249 665 203 635T136 535T115 345Q115 224 135 155T202 56T331 25Q439 25 516 38L523 7Q481 -3 438 -7T331 -12Q234 -12 178 22T97 134T72
345Q72 478 97 555T178 667T331 702Q391 702 429 698Z" />
<glyph unicode="D" glyph-name="D" horiz-adv-x="660" d="M428 699T483 665T563 555T588 345Q588 212 564 136T484 25T332 -9Q221 -9 99 0V690Q220 699 332 699Q428 699 483 665ZM412 28T458 58T524 156T545 345Q545 465 525 533T458 632T332 662Q276 662 190
660L140 659V31L188 30Q274 28 332 28Q412 28 458 58Z" />
<glyph unicode="E" glyph-name="E" horiz-adv-x="553" d="M495 35L497 4Q401 0 203 0Q154 0 124 29T93 106V584Q93 631 123 660T203 690Q401 690 497 686L495 655H210Q176 655 155 634T134 577V386L454 385V352L134 351V113Q134 78 155 57T210 35H495Z" />
<glyph unicode="F" glyph-name="F" horiz-adv-x="532" d="M180 655T159 634T137 577V380H450V346H137V0H96V583Q96 631 126 660T206 690Q399 690 493 685L490 655H215Q180 655 159 634Z" />
<glyph unicode="G" glyph-name="G" horiz-adv-x="624" d="M546 400V0H517L509 84Q469 41 415 15T298 -12Q217 -12 168 25T95 141T72 346Q72 480 97 557T180 668T338 702Q401 702 444 698T533 684L526 654Q439 665 339 665Q254 665 206 636T137 537T116 344Q116
229 134 160T194 58T305 25Q366 25 410 48T505 117V400H546Z" />
<glyph unicode="H" glyph-name="H" horiz-adv-x="660" d="M561 690V0H520V352H140V0H99V690H140V388H520V690H561Z" />
<glyph unicode="I" glyph-name="I" horiz-adv-x="239" d="M140 0H99V690H140V0Z" />
<glyph unicode="J" glyph-name="J" horiz-adv-x="328" d="M232 123Q232 59 202 26T110 -7Q76 -7 36 1L41 29H97Q191 29 191 123V690H232V123Z" />
<glyph unicode="K" glyph-name="K" horiz-adv-x="570" d="M242 343H136Q139 300 139 260V0H99V690H139V459Q139 414 135 377H243L477 690H524L301 390Q292 376 274 361V359Q290 344 302 329L540 0H492L242 343Z" />
<glyph unicode="L" glyph-name="L" horiz-adv-x="509" d="M137 113Q137 78 158 57T215 35H481L482 5Q392 0 208 0Q156 0 126 30T96 109V690H137V113Z" />
<glyph unicode="M" glyph-name="M" horiz-adv-x="860" d="M735 690T740 685T746 669L776 0H735L706 655H683L475 79Q470 65 456 65H404Q389 65 384 79L177 655H154L125 0H84L113 669Q115 690 134 690H191Q205 690 210 676L385 192Q396 164 407 130L418 99H442L475
194L649 676Q654 690 669 690H726Q735 690 740 685Z" />
<glyph unicode="N" glyph-name="N" horiz-adv-x="692" d="M593 20Q593 0 574 0H520Q505 0 497 15L199 579Q171 633 162 653H139Q140 628 140 578V0H99V670Q99 690 119 690H169Q186 690 193 675L483 124Q505 84 517 60L528 38H553L552 132V690H593V20Z" />
<glyph unicode="O" glyph-name="O" horiz-adv-x="664" d="M429 702T485 668T566 557T591 345Q591 211 566 134T485 22T332 -12Q235 -12 179 22T97 133T72 345Q72 479 97 556T178 668T332 702Q429 702 485 668ZM250 665T204 635T136 535T115 345Q115 224 136 155T203
56T332 25Q414 25 460 55T527 155T548 345Q548 466 528 535T461 634T332 665Q250 665 204 635Z" />
<glyph unicode="P" glyph-name="P" horiz-adv-x="583" d="M402 698T446 680T509 618T529 492Q529 410 510 366T447 304T327 286Q220 286 140 292V0H99V690Q150 695 195 696T324 698Q402 698 446 680ZM387 323T421 337T471 388T487 492Q487 560 472 596T421 647T324
662Q218 662 140 660V322H324Q387 323 421 337Z" />
<glyph unicode="Q" glyph-name="Q" horiz-adv-x="664" d="M429 702T485 668T566 557T591 345Q591 211 566 134T485 22T332 -12Q235 -12 179 22T97 133T72 345Q72 479 97 556T178 668T332 702Q429 702 485 668ZM250 665T204 635T137 535T116 345Q116 224 136 155T203
56T332 25Q414 25 460 55T527 155T548 345Q548 466 528 535T461 634T332 665Q250 665 204 635ZM346 -80T403 -99T532 -130L519 -171Q452 -161 391 -135T282 -73L297 -49Q346 -80 403 -99Z" />
<glyph unicode="R" glyph-name="R" horiz-adv-x="610" d="M554 0H509L439 217Q423 264 397 284T331 304Q257 304 140 307V0H99V690Q150 695 195 696T324 698Q402 698 445 681T509 622T529 503Q529 413 500 372T402 321V316Q428 309 448 284T481 220L554 0ZM386
342T421 356T471 404T487 502Q487 566 472 600T421 648T324 662Q216 662 140 660V341H324Q386 342 421 356Z" />
<glyph unicode="S" glyph-name="S" horiz-adv-x="556" d="M370 701T467 687L463 657L436 658Q334 664 276 664Q205 664 172 657T122 620T105 522Q105 452 128 421T208 380L358 355Q434 344 465 302T497 171Q497 92 474 53T405 2T281 -11Q169 -11 75 2L78 33Q179
26 250 26H283Q352 27 387 37T438 78T455 171Q455 222 445 251T411 296T348 317L198 342Q126 353 95 396T63 523Q63 600 83 638T143 688T254 701Q370 701 467 687Z" />
<glyph unicode="T" glyph-name="T" horiz-adv-x="568" d="M542 654H304V0H263V654H26V690H542V654Z" />
<glyph unicode="U" glyph-name="U" horiz-adv-x="667" d="M573 257Q573 159 550 101T475 15T335 -12Q246 -12 194 15T118 100T94 257V690H135V257Q135 170 154 120T217 48T334 25Q407 25 450 47T512 120T532 257V690H573V257Z" />
<glyph unicode="V" glyph-name="V" horiz-adv-x="596" d="M344 13Q338 0 325 0H271Q264 0 260 4T253 13L24 690H67L261 108Q279 51 284 34H312L320 59Q328 87 336 109L529 690H573L344 13Z" />
<glyph unicode="W" glyph-name="W" horiz-adv-x="935" d="M730 14Q728 8 723 4T711 0H654Q638 0 635 15L498 579Q491 605 479 657H456Q449 631 437 579L300 15Q299 8 294 4T281 0H224Q209 0 204 14L32 690H76L222 107Q234 59 239 34H266L283 106L422 674Q425 690
441 690H494Q508 690 513 674L652 107Q658 82 668 34H695L712 106L859 690H902L730 14Z" />
<glyph unicode="X" glyph-name="X" horiz-adv-x="598" d="M314 343H284L82 0H35L247 359L48 690H94L282 377H316L503 690H550L350 359L563 0H516L314 343Z" />
<glyph unicode="Y" glyph-name="Y" horiz-adv-x="548" d="M295 253V0H253V255L19 690H64L235 368L271 297H277L312 367L483 690H528L295 253Z" />
<glyph unicode="Z" glyph-name="Z" horiz-adv-x="560" d="M510 36V0H51V36L458 654H55V690H505V654L98 36H510Z" />
<glyph unicode="[" glyph-name="bracketleft" horiz-adv-x="316" d="M269 737H153Q148 737 145 734T141 724V-121Q141 -127 144 -130T153 -134H269V-165H139Q123 -165 113 -155T102 -128V731Q102 747 112 757T139 768H269V737Z" />
<glyph unicode="\" glyph-name="backslash" horiz-adv-x="500" d="M465 -61H428L35 690H72L465 -61Z" />
<glyph unicode="]" glyph-name="bracketright" horiz-adv-x="316" d="M194 768T204 758T214 731V-128Q214 -145 204 -155T177 -165H48V-134H163Q168 -134 172 -131T176 -121V724Q176 730 172 733T163 737H48V768H177Q194 768 204 758Z" />
<glyph unicode="^" glyph-name="asciicircum" horiz-adv-x="401" d="M371 381L353 367L205 546H197L49 367L30 381L186 582H215L371 381Z" />
<glyph unicode="_" glyph-name="underscore" horiz-adv-x="433" d="M433 -33H0V0H433V-33Z" />
<glyph unicode="`" glyph-name="grave" horiz-adv-x="287" d="M227 567L209 547L46 683L72 712L227 567Z" />
<glyph unicode="a" glyph-name="a" horiz-adv-x="541" d="M382 494T418 461T454 354V0H424L417 90Q381 54 318 24T193 -7Q131 -7 97 25T62 118V178Q62 233 93 263T182 293H414V354Q414 404 390 431T307 458Q221 458 86 443L82 473L105 476Q223 494 312 494Q382
494 418 461ZM252 30T312 56T414 122V261L186 258Q103 257 103 175V121Q103 30 202 30Q252 30 312 56Z" />
<glyph unicode="b" glyph-name="b" horiz-adv-x="561" d="M384 494T422 469T477 389T495 241Q495 150 476 95T413 14T296 -12Q198 -12 88 20V700H128V492Q128 464 127 441T123 395Q230 494 321 494Q384 494 422 469ZM353 24T387 45T438 113T454 241Q454 322 441
369T397 437T313 458Q271 458 230 436T127 364L128 46Q215 22 295 24Q353 24 387 45Z" />
<glyph unicode="c" glyph-name="c" horiz-adv-x="481" d="M374 494T428 475L421 448Q395 453 359 455T294 458Q224 458 184 439T125 372T107 241Q107 157 125 110T183 44T294 24Q378 24 433 35L439 7Q366 -12 288 -12Q206 -12 158 12T87 92T65 241Q65 335 87 390T157
469T287 494Q374 494 428 475Z" />
<glyph unicode="d" glyph-name="d" horiz-adv-x="564" d="M473 700V0H443L437 80Q385 34 338 11T240 -12Q147 -12 107 47T67 241Q67 334 85 389T141 469T244 494Q330 494 437 446Q434 468 434 507V539V700H473ZM108 161T122 114T166 45T248 24Q292 24 333 44T434
113V415Q374 438 333 448T249 458Q197 458 167 438T122 370T108 242Q108 161 122 114Z" />
<glyph unicode="e" glyph-name="e" horiz-adv-x="530" d="M372 24T454 36L459 8Q433 -1 380 -6T284 -12Q205 -12 158 13T88 94T65 243Q65 336 86 391T153 470T276 494Q375 494 422 457T470 344Q470 282 445 252T364 221H107Q109 146 129 104T187 43T289 24Q372
24 454 36ZM215 458T178 439T125 375T107 254H358Q398 254 414 278T429 350Q428 406 392 432T278 458Q215 458 178 439Z" />
<glyph unicode="f" glyph-name="f" horiz-adv-x="361" d="M207 680T184 657T160 577V482H332V448H160V0H120V448H33V477L120 482V579Q120 648 150 681T250 715Q329 715 373 710L371 680H263Q207 680 184 657Z" />
<glyph unicode="g" glyph-name="g" horiz-adv-x="548" d="M518 456L425 452Q464 416 464 343Q464 266 419 230T269 194Q196 194 151 212Q126 184 126 154Q126 132 142 116T192 94L382 61Q444 51 467 22T491 -68Q491 -121 470 -151T402 -195T275 -209Q192 -209
144 -196T75 -152T53 -69Q53 -17 68 12T125 64L140 72Q115 84 103 103T91 145Q91 167 101 187T129 223Q73 257 73 343Q73 420 119 457T270 494Q329 494 370 482H521L518 456ZM354 227T390 254T426 343Q426 404 391 432T269 461Q184 461 148 433T111 343Q111 283
147 255T269 227Q354 227 390 254ZM452 -20T435 0T366 30L173 62H171L150 49Q116 28 104 3T92 -67Q92 -108 109 -131T166 -164T274 -174Q341 -174 379 -164T435 -131T452 -67Q452 -20 435 0Z" />
<glyph unicode="h" glyph-name="h" horiz-adv-x="572" d="M419 494T452 461T485 362V0H445V354Q445 408 421 433T346 458Q297 458 250 437T130 366V0H90V700H130L131 491Q131 430 126 397Q255 494 355 494Q419 494 452 461Z" />
<glyph unicode="i" glyph-name="i" horiz-adv-x="227" d="M138 683T138 667V607Q138 591 123 591H105Q89 591 89 607V667Q89 683 105 683H123Q138 683 138 667ZM133 0H94V482H133V0Z" />
<glyph unicode="j" glyph-name="j" horiz-adv-x="228" d="M138 683T138 667V607Q138 591 123 591H105Q90 591 90 607V667Q90 683 105 683H123Q138 683 138 667ZM134 -37Q134 -135 61 -208L39 -191Q67 -155 80 -120T94 -37V482H134V-37Z" />
<glyph unicode="k" glyph-name="k" horiz-adv-x="482" d="M206 259H127Q130 216 130 174V0H90V700H130L131 373Q131 328 127 291H205L388 482H437L264 298Q249 283 238 275V273Q252 261 264 244L453 0H405L206 259Z" />
<glyph unicode="l" glyph-name="l" horiz-adv-x="277" d="M130 106Q130 69 150 50T207 30H262L267 1Q257 -2 235 -4T197 -7Q148 -7 120 21T91 100V700H131L130 106Z" />
<glyph unicode="m" glyph-name="m" horiz-adv-x="879" d="M728 494T760 461T792 362V0H753V354Q752 408 728 433T655 458Q611 458 570 438T461 367V362V0H422V354Q422 407 398 432T324 458Q281 458 239 437T130 366V0H91V482H122L126 397Q237 494 336 494Q387
494 418 470T458 398Q568 494 667 494Q728 494 760 461Z" />
<glyph unicode="n" glyph-name="n" horiz-adv-x="573" d="M420 494T453 461T486 362V0H446V354Q446 408 422 433T347 458Q298 458 251 437T130 366V0H91V482H123L127 397Q248 494 356 494Q420 494 453 461Z" />
<glyph unicode="o" glyph-name="o" horiz-adv-x="562" d="M361 494T407 469T475 390T496 241Q496 147 475 92T408 13T281 -12Q201 -12 155 12T87 92T66 241Q66 335 87 389T154 469T281 494Q361 494 407 469ZM216 458T179 438T125 371T108 241Q108 158 124 111T178
44T281 23Q346 23 383 43T438 111T455 241Q455 324 438 371T384 438T281 458Q216 458 179 438Z" />
<glyph unicode="p" glyph-name="p" horiz-adv-x="566" d="M419 494T459 435T499 240Q499 148 481 93T425 13T322 -12Q228 -12 127 41Q130 18 130 -21V-53V-208H91V482H122L127 397Q227 494 327 494Q419 494 459 435ZM369 24T399 44T444 112T458 240Q458 321 444
368T400 436T319 458Q275 458 233 437T130 367V68Q192 45 233 35T317 24Q369 24 399 44Z" />
<glyph unicode="q" glyph-name="q" horiz-adv-x="562" d="M363 494T473 462V-208H434L433 -16Q433 11 434 34T438 79Q381 33 333 11T231 -12Q145 -12 106 48T66 241Q66 333 85 388T149 468T270 494Q363 494 473 462ZM107 124T138 74T241 24Q289 24 330 43T434
110V435Q349 458 272 458Q210 458 175 438T123 370T107 238Q107 124 138 74Z" />
<glyph unicode="r" glyph-name="r" horiz-adv-x="388" d="M366 494L360 456H340Q294 456 249 436T130 368V0H91V482H121L126 396Q248 494 346 494H366Z" />
<glyph unicode="s" glyph-name="s" horiz-adv-x="501" d="M335 494T430 481L426 452Q311 458 243 459H212Q168 459 145 453T110 426T98 365Q98 318 117 298T176 272L333 249Q388 240 415 211T443 124Q443 65 422 36T360 -2T249 -11Q153 -11 70 1L74 30Q147 24
214 24H245Q308 25 341 32T389 60T404 124Q404 168 383 188T321 215L164 238Q110 246 85 275T59 365Q59 420 76 447T126 484T218 494Q335 494 430 481Z" />
<glyph unicode="t" glyph-name="t" horiz-adv-x="356" d="M159 448V106Q159 30 236 30H320L325 1Q306 -2 279 -4T233 -7Q177 -7 148 21T119 102V448H32V477L119 482V631H159V482H331V448H159Z" />
<glyph unicode="u" glyph-name="u" horiz-adv-x="563" d="M472 482V0H441L437 83Q319 -12 217 -12Q153 -12 120 21T87 120V482H127V128Q126 74 151 49T228 24Q274 24 318 45T432 114V482H472Z" />
<glyph unicode="v" glyph-name="v" horiz-adv-x="513" d="M294 11Q288 0 276 0H236Q224 0 219 11L27 482H70L214 121L250 32H263Q287 92 300 122L443 482H486L294 11Z" />
<glyph unicode="w" glyph-name="w" horiz-adv-x="815" d="M623 13Q618 0 605 0H566Q552 0 547 14L434 379L413 452H402Q394 424 389 410L380 379L268 14Q263 0 249 0H210Q197 0 192 13L32 482H74L202 97L216 54Q220 38 223 30H236L257 98L371 468Q373 474 377
478T389 482H426Q433 482 437 478T444 468L559 98Q563 82 579 30H592L603 64Q610 90 613 98L741 482H783L623 13Z" />
<glyph unicode="x" glyph-name="x" horiz-adv-x="511" d="M267 235H244L79 0H33L210 250L45 482H91L242 268H269L420 482H466L301 250L478 0H432L267 235Z" />
<glyph unicode="y" glyph-name="y" horiz-adv-x="512" d="M485 482L271 -42Q243 -112 205 -153T101 -209L95 -184Q150 -164 181 -127T235 -34L249 0H236Q224 0 219 12L27 482H70L228 87Q232 78 237 65T249 33H263L284 88L443 482H485Z" />
<glyph unicode="z" glyph-name="z" horiz-adv-x="502" d="M450 34V0H52V34L399 447H55V482H447V447L100 34H450Z" />
<glyph unicode="{" glyph-name="braceleft" horiz-adv-x="303" d="M255 741Q199 741 178 717T156 639V440Q156 399 149 378T126 346T76 328Q111 316 128 305T152 275T160 220V-36Q160 -89 181 -113T259 -138V-165Q185 -166 153 -136T121 -37V231Q121 258 115 271T96
291T53 309V347Q85 357 96 362T112 382T117 429V640Q117 708 149 738T255 768V741Z" />
<glyph unicode="|" glyph-name="bar" horiz-adv-x="237" d="M135 -169H102V781H135V-169Z" />
<glyph unicode="}" glyph-name="braceright" horiz-adv-x="304" d="M122 769T154 739T187 640V429Q187 396 192 382T207 363T250 347V309Q220 298 208 292T190 272T183 231V-37Q183 -105 151 -135T44 -165V-138Q100 -138 122 -114T144 -36V220Q144 255 151 274T175
305T227 328Q194 335 178 346T155 378T148 440V639Q148 692 126 716T48 741V768Q122 769 154 739Z" />
<glyph unicode="~" glyph-name="asciitilde" horiz-adv-x="531" d="M188 334T210 326T265 302Q297 286 322 278T377 269Q402 269 413 283T424 330H448Q450 283 430 258T372 236Q337 238 312 247T252 272Q223 287 202 294T154 302Q130 302 119 287T108 238H84Q81
286 102 311T160 335Q188 334 210 326Z" />
<glyph unicode="&#xa0;" glyph-name="uni00A0" horiz-adv-x="228" />
<glyph unicode="&#xa1;" glyph-name="exclamdown" horiz-adv-x="239" d="M144 483T144 466V406Q144 389 127 389H114Q96 389 96 406V466Q96 483 114 483H127Q144 483 144 466ZM140 120V-203H99V120L103 278H136L140 120Z" />
<glyph unicode="&#xa2;" glyph-name="cent" horiz-adv-x="505" d="M367 97T288 97H275L268 0H241L249 99Q182 104 142 131T84 211T65 350Q65 443 87 498T157 578T286 603L292 690H320L313 602Q376 600 428 584L421 556Q380 565 310 567L279 132H294Q321 132 362
135T433 144L438 116Q367 97 288 97ZM105 274T119 229T165 162T251 134L283 567Q216 565 178 545T122 479T105 350Q105 274 119 229Z" />
<glyph unicode="&#xa3;" glyph-name="sterling" horiz-adv-x="562" d="M505 36V0H69V36Q114 62 132 107T151 216Q151 237 150 248L145 348H63V378H143L136 525Q133 600 154 638T215 689T319 701Q390 701 481 691L477 660Q403 665 301 665Q229 665 201 634T176
527L183 378H424L422 348H185L190 248L191 216Q191 152 175 108T117 35Q138 36 179 36H505Z" />
<glyph unicode="&#xa4;" glyph-name="currency" horiz-adv-x="600" d="M499 132L424 207Q399 185 367 173T299 160Q263 160 231 172T174 206L100 132L79 153L153 227Q107 281 107 352Q107 424 153 478L80 551L100 572L173 498Q227 544 299 544Q335 544 367 532T425
497L499 572L519 551L445 477Q467 452 479 420T491 352Q491 317 479 285T444 227L520 152L499 132ZM343 189T380 210T439 270T461 352Q461 396 439 434T380 494T299 516Q255 516 218 494T158 434T136 352Q136 308 158 270T217 211T299 189Q343 189 380 210Z" />
<glyph unicode="&#xa5;" glyph-name="yen" horiz-adv-x="606" d="M340 310H516V282H324L323 281V200H516V172H323V0H282V172H94V200H282V281L281 282H94V310H265L48 690H92L261 394Q278 366 300 323H306Q327 363 344 393L512 690H557L340 310Z" />
<glyph unicode="&#xa6;" glyph-name="brokenbar" horiz-adv-x="239" d="M136 381H103V781H136V381ZM136 -169H103V231H136V-169Z" />
<glyph unicode="&#xa7;" glyph-name="section" horiz-adv-x="543" d="M355 702T470 690L466 660Q419 663 369 665T240 667Q175 667 144 652T113 588Q113 548 132 522T189 474L373 370Q423 342 444 304T465 210Q465 183 460 145H427Q430 171 430 193Q430 243 414
277T361 332L174 439Q117 471 94 504T71 588Q71 655 113 678T244 702Q355 702 470 690ZM113 382T113 360Q113 311 129 279T182 225L370 119Q425 88 449 54T473 -32Q473 -85 451 -110T391 -142T290 -149Q190 -148 74 -137L78 -106L114 -108Q248 -114 307 -114Q349
-114 374 -109T415 -85T431 -31Q431 9 411 36T355 83L172 187Q122 216 101 253T79 346Q79 371 84 409H116Q113 382 113 360Z" />
<glyph unicode="&#xa8;" glyph-name="dieresis" horiz-adv-x="402" d="M134 678T134 664V608Q134 594 120 594H105Q92 594 92 608V664Q92 678 105 678H120Q134 678 134 664ZM311 678T311 664V608Q311 594 297 594H282Q269 594 269 608V664Q269 678 282 678H297Q311
678 311 664Z" />
<glyph unicode="&#xa9;" glyph-name="copyright" horiz-adv-x="852" d="M525 702T607 656T736 528T784 345Q784 244 737 162T607 34T426 -12Q328 -12 247 34T117 162T69 345Q69 446 117 528T246 656T426 702Q525 702 607 656ZM337 675T261 632T141 514T96 345Q96
252 140 177T261 58T426 15Q516 15 591 58T711 176T756 345Q756 438 712 513T592 632T426 675Q337 675 261 632ZM478 577T506 574T565 564L559 541Q505 546 431 546Q370 546 336 527T286 466T270 348Q270 273 285 230T335 168T431 149Q524 149 571 156L575 132Q517
119 431 119Q358 119 316 141T255 213T236 348Q236 433 255 482T316 554T431 577Q478 577 506 574Z" />
<glyph unicode="&#xaa;" glyph-name="ordfeminine" horiz-adv-x="443" d="M306 602T332 580T358 506V271H333L327 333Q300 307 256 287T167 266Q124 266 100 287T75 349V390Q75 426 97 446T161 467H325V506Q325 573 252 573Q185 573 93 564L89 588Q97 589 146
595T257 602Q306 602 332 580ZM213 295T254 312T325 355V446L168 441Q108 440 108 388V354Q108 295 178 295Q213 295 254 312Z" />
<glyph unicode="&#xab;" glyph-name="guillemotleft" horiz-adv-x="460" d="M396 440L253 251L397 59L376 44L213 245V257L375 455L396 440ZM232 440L89 251L233 59L212 44L49 245V257L211 455L232 440Z" />
<glyph unicode="&#xac;" glyph-name="logicalnot" horiz-adv-x="592" d="M505 313V130H471V280H83V313H505Z" />
<glyph unicode="&#xad;" glyph-name="uni00AD" horiz-adv-x="474" d="M392 235H82V268H392V235Z" />
<glyph unicode="&#xae;" glyph-name="registered" horiz-adv-x="574" d="M348 701T398 671T479 591T509 479Q509 418 479 367T399 286T287 256Q226 256 175 286T94 367T64 479Q64 540 94 590T175 671T287 701Q348 701 398 671ZM342 276T388 303T461 376T488 479Q488
534 461 580T388 654T287 682Q232 682 186 655T113 581T86 479Q86 423 113 377T186 303T287 276Q342 276 388 303ZM350 465T360 455T376 428L412 340H386L352 426Q338 460 301 460Q229 460 210 461V340H187V617Q222 620 298 620Q354 620 377 603T400 541Q400 506
386 490T337 469V467Q350 465 360 455ZM342 479T359 491T376 539Q376 575 359 587T298 600H210V478H298Q342 479 359 491Z" />
<glyph unicode="&#xaf;" glyph-name="overscore" horiz-adv-x="400" d="M332 621H68V654H332V621Z" />
<glyph unicode="&#xb0;" glyph-name="degree" horiz-adv-x="378" d="M222 702T251 685T297 640T314 578Q314 545 297 516T251 470T189 453Q156 453 127 470T81 516T64 578Q64 611 81 639T126 685T189 702Q222 702 251 685ZM149 674T121 646T93 578Q93 539 121
510T189 481Q228 481 256 510T285 578Q285 618 257 646T189 674Q149 674 121 646Z" />
<glyph unicode="&#xb1;" glyph-name="plusminus" horiz-adv-x="596" d="M509 366V334H314V190H282V334H87V366H281V510H315V366H509ZM87 121H509V88H87V121Z" />
<glyph unicode="&#xb2;" glyph-name="uni00B2" horiz-adv-x="377" d="M254 758T285 738T317 669Q317 631 297 598T230 515L106 384Q130 385 171 385L336 384V356H57V370Q57 378 63 384L203 533Q247 579 263 605T279 663Q279 701 258 715T195 729Q143 729 68 714L64
740Q130 758 193 758Q254 758 285 738Z" />
<glyph unicode="&#xb3;" glyph-name="uni00B3" horiz-adv-x="392" d="M248 758T278 738T309 667Q309 584 247 567V565Q286 557 302 532T319 462Q319 404 288 376T189 348Q123 348 57 364L64 389Q119 378 184 378Q237 378 259 398T282 467Q282 506 264 527T192
549L108 550V576L192 578Q240 579 256 601T273 657Q273 687 265 702T236 723T177 729Q150 729 120 725T68 716L63 742Q124 758 179 758Q248 758 278 738Z" />
<glyph unicode="&#xb4;" glyph-name="acute" horiz-adv-x="287" d="M238 684L75 549L57 568L212 714L238 684Z" />
<glyph unicode="&#xb5;" glyph-name="uni00B5" horiz-adv-x="573" d="M554 1Q528 -7 500 -7Q468 -7 456 16T443 82V131Q414 63 354 26T230 -12Q164 -12 129 20V-97L122 -208H91V482H129V130Q129 75 154 50T233 25Q285 25 332 51T409 123T440 220V482H480V95Q480
60 485 43T513 25H550L554 1Z" />
<glyph unicode="&#xb6;" glyph-name="paragraph" horiz-adv-x="596" d="M384 702T422 698T490 685V0H455V663Q395 671 317 671V-210H282V201Q158 212 104 270T50 450Q50 543 80 598T175 677T351 702Q384 702 422 698Z" />
<glyph unicode="&#xb7;" glyph-name="middot" horiz-adv-x="214" d="M131 304T131 287V227Q131 210 114 210H100Q82 210 82 227V287Q82 304 100 304H114Q131 304 131 287Z" />
<glyph unicode="&#xb8;" glyph-name="cedilla" horiz-adv-x="223" d="M143 -44T164 -58T186 -110Q186 -160 153 -192T64 -224Q56 -224 40 -222L46 -199Q95 -201 124 -176T154 -114Q154 -89 141 -79T95 -68L100 -47Q143 -44 164 -58Z" />
<glyph unicode="&#xb9;" glyph-name="uni00B9" horiz-adv-x="289" d="M178 356H145V692Q145 711 147 721L37 687L32 710L145 752H178V356Z" />
<glyph unicode="&#xba;" glyph-name="ordmasculine" horiz-adv-x="448" d="M281 602T314 586T362 532T377 432Q377 369 362 333T314 280T223 263Q166 263 133 279T86 332T71 432Q71 495 85 532T133 585T223 602Q281 602 314 586ZM179 574T154 561T117 518T105
432Q105 378 116 348T153 304T223 291Q268 291 293 304T330 347T342 432Q342 487 331 517T294 561T223 574Q179 574 154 561Z" />
<glyph unicode="&#xbb;" glyph-name="guillemotright" horiz-adv-x="460" d="M247 257V245L84 44L63 59L207 251L64 440L85 455L247 257ZM411 257V245L248 44L227 59L371 251L228 440L249 455L411 257Z" />
<glyph unicode="&#xbc;" glyph-name="onequarter" horiz-adv-x="846" d="M174 648T176 659L55 624L50 646L174 690H206V276H174V627Q174 648 176 659ZM634 690L162 0H129L600 690H634ZM796 114L751 111V0H719V110H499Q482 110 472 119T461 144Q461 154 466 163L608
414H642L500 165Q497 161 497 155Q497 147 503 142T519 137H719V266L726 336H751V137H796V114Z" />
<glyph unicode="&#xbd;" glyph-name="onehalf" horiz-adv-x="875" d="M206 276H174V627Q174 648 176 659L55 624L50 646L174 690H206V276ZM161 0H127L599 690H632L161 0ZM733 421T766 404T799 334Q799 296 778 261T709 177L563 29Q589 30 640 30L819 29L818 0H521V19Q521
27 526 34L677 186Q722 232 742 266T763 333Q763 370 738 381T660 392Q599 392 529 381L525 405Q569 415 598 418T660 421Q733 421 766 404Z" />
<glyph unicode="&#xbe;" glyph-name="threequarters" horiz-adv-x="936" d="M348 323T316 295T206 267Q155 267 65 277L69 302Q141 295 200 295Q261 295 287 317T314 392Q314 432 292 455T209 479L123 480V503L209 505Q267 506 286 531T305 593Q304 636 280 651T192
667Q138 667 76 661L72 685Q133 695 195 695Q249 695 279 686T323 657T337 600Q337 508 262 495V493Q309 487 328 459T348 383Q348 323 316 295ZM737 690L266 0H232L704 690H737ZM886 114L832 111V0H800V110H589Q573 110 562 120T550 144Q550 154 555 163L698 414H731L589
165Q587 162 587 155Q587 147 593 142T609 137H800V266L807 336H832V137H886V114Z" />
<glyph unicode="&#xbf;" glyph-name="questiondown" horiz-adv-x="503" d="M283 492T283 475V415Q283 398 266 398H253Q236 398 236 415V475Q236 492 253 492H266Q283 492 283 475ZM277 239T263 202T228 138T174 79Q133 38 114 9T94 -63Q94 -125 133 -155T254
-185Q321 -185 353 -183T452 -172L457 -201L425 -206Q383 -213 348 -216T250 -220Q52 -220 52 -65Q52 -16 74 18T141 98Q174 131 193 155T226 212T240 287H277Q277 239 263 202Z" />
<glyph unicode="&#xc0;" glyph-name="Agrave" horiz-adv-x="608" d="M463 243H145L60 0H17L258 677Q263 690 276 690H332Q345 690 350 677L591 0H548L463 243ZM450 279L338 600L318 656H290L270 600L158 279H450ZM348 752L330 732L167 868L193 897L348 752Z" />
<glyph unicode="&#xc1;" glyph-name="Aacute" horiz-adv-x="608" d="M463 243H145L60 0H17L258 677Q263 690 276 690H332Q345 690 350 677L591 0H548L463 243ZM450 279L338 600L318 656H290L270 600L158 279H450ZM431 869L268 734L250 753L405 899L431 869Z" />
<glyph unicode="&#xc2;" glyph-name="Acircumflex" horiz-adv-x="608" d="M463 243H145L60 0H17L258 677Q263 690 276 690H332Q345 690 350 677L591 0H548L463 243ZM450 279L338 600L318 656H290L270 600L158 279H450ZM453 763L438 744L308 845H300L171 744L154
763L289 882H318L453 763Z" />
<glyph unicode="&#xc3;" glyph-name="Atilde" horiz-adv-x="608" d="M463 243H145L60 0H17L258 677Q263 690 276 690H332Q345 690 350 677L591 0H548L463 243ZM450 279L338 600L318 656H290L270 600L158 279H450ZM247 867T264 859T305 834Q327 818 343 810T382
802Q408 802 419 816T430 862H453Q456 816 435 792T377 770Q353 772 335 781T294 806Q272 821 258 828T225 835Q201 835 190 820T179 772H156Q154 817 172 842T224 867Q247 867 264 859Z" />
<glyph unicode="&#xc4;" glyph-name="Adieresis" horiz-adv-x="608" d="M463 243H145L60 0H17L258 677Q263 690 276 690H332Q345 690 350 677L591 0H548L463 243ZM450 279L338 600L318 656H290L270 600L158 279H450ZM237 858T237 844V788Q237 774 223 774H208Q195
774 195 788V844Q195 858 208 858H223Q237 858 237 844ZM414 858T414 844V788Q414 774 400 774H385Q372 774 372 788V844Q372 858 385 858H400Q414 858 414 844Z" />
<glyph unicode="&#xc5;" glyph-name="Aring" horiz-adv-x="608" d="M463 243H145L60 0H17L258 677Q263 690 276 690H332Q345 690 350 677L591 0H548L463 243ZM450 279L338 600L318 656H290L270 600L158 279H450ZM345 913T374 885T403 816Q403 777 374 748T304
718Q263 718 234 746T205 816Q205 856 234 884T304 913Q345 913 374 885ZM273 888T253 868T233 816Q233 784 253 764T304 743Q334 743 354 763T375 816Q375 847 355 867T304 888Q273 888 253 868Z" />
<glyph unicode="&#xc6;" glyph-name="AE" horiz-adv-x="907" d="M850 35L851 4Q758 0 572 0Q526 0 496 30T466 106V260H219L54 0H8L392 599Q427 653 467 671T573 690Q748 690 851 686L850 654H585Q549 654 528 633T506 576V386L808 385V352L506 351V114Q506 78
527 57T585 35H850ZM466 295V579Q466 602 477 624T505 655H498Q482 648 463 630T427 586L242 295H466Z" />
<glyph unicode="&#xc7;" glyph-name="Ccedilla" horiz-adv-x="563" d="M391 702T429 698T509 684L502 654Q458 660 423 662T331 665Q249 665 203 635T136 535T115 345Q115 224 135 155T202 56T331 25Q439 25 516 38L523 7Q481 -3 438 -7T331 -12Q234 -12 178 22T97
134T72 345Q72 478 97 555T178 667T331 702Q391 702 429 698ZM340 -56T361 -70T383 -122Q383 -172 350 -204T261 -236Q253 -236 237 -234L243 -211Q292 -213 321 -188T351 -126Q351 -101 338 -91T292 -80L297 -59Q340 -56 361 -70Z" />
<glyph unicode="&#xc8;" glyph-name="Egrave" horiz-adv-x="553" d="M495 35L497 4Q401 0 203 0Q154 0 124 29T93 106V584Q93 631 123 660T203 690Q401 690 497 686L495 655H210Q176 655 155 634T134 577V386L454 385V352L134 351V113Q134 78 155 57T210 35H495ZM353
776L335 756L172 892L198 921L353 776Z" />
<glyph unicode="&#xc9;" glyph-name="Eacute" horiz-adv-x="553" d="M495 35L497 4Q401 0 203 0Q154 0 124 29T93 106V584Q93 631 123 660T203 690Q401 690 497 686L495 655H210Q176 655 155 634T134 577V386L454 385V352L134 351V113Q134 78 155 57T210 35H495ZM437
893L274 758L256 777L411 923L437 893Z" />
<glyph unicode="&#xca;" glyph-name="Ecircumflex" horiz-adv-x="553" d="M495 35L497 4Q401 0 203 0Q154 0 124 29T93 106V584Q93 631 123 660T203 690Q401 690 497 686L495 655H210Q176 655 155 634T134 577V386L454 385V352L134 351V113Q134 78 155 57T210
35H495ZM458 787L443 768L313 869H305L176 768L159 787L294 906H323L458 787Z" />
<glyph unicode="&#xcb;" glyph-name="Edieresis" horiz-adv-x="553" d="M495 35L497 4Q401 0 203 0Q154 0 124 29T93 106V584Q93 631 123 660T203 690Q401 690 497 686L495 655H210Q176 655 155 634T134 577V386L454 385V352L134 351V113Q134 78 155 57T210 35H495ZM242
881T242 867V811Q242 797 228 797H213Q200 797 200 811V867Q200 881 213 881H228Q242 881 242 867ZM419 881T419 867V811Q419 797 405 797H390Q377 797 377 811V867Q377 881 390 881H405Q419 881 419 867Z" />
<glyph unicode="&#xcc;" glyph-name="Igrave" horiz-adv-x="239" d="M140 0H99V690H140V0ZM162 754L144 734L-19 870L7 899L162 754Z" />
<glyph unicode="&#xcd;" glyph-name="Iacute" horiz-adv-x="239" d="M140 0H99V690H140V0ZM246 871L83 736L65 755L220 901L246 871Z" />
<glyph unicode="&#xce;" glyph-name="Icircumflex" horiz-adv-x="239" d="M140 0H99V690H140V0ZM268 765L253 746L123 847H115L-14 746L-31 765L104 884H133L268 765Z" />
<glyph unicode="&#xcf;" glyph-name="Idieresis" horiz-adv-x="239" d="M140 0H99V690H140V0ZM51 859T51 845V789Q51 775 37 775H22Q9 775 9 789V845Q9 859 22 859H37Q51 859 51 845ZM228 859T228 845V789Q228 775 214 775H199Q186 775 186 789V845Q186 859 199
859H214Q228 859 228 845Z" />
<glyph unicode="&#xd0;" glyph-name="Eth" horiz-adv-x="664" d="M431 699T486 665T566 555T591 345Q591 212 567 136T487 25T336 -9Q226 -9 102 0V356H25V384H102V690Q224 699 336 699Q431 699 486 665ZM416 28T461 58T527 156T548 345Q548 465 528 533T462 632T336
662Q279 662 193 660L143 659V384H318V356H143V31L191 30Q277 28 336 28Q416 28 461 58Z" />
<glyph unicode="&#xd1;" glyph-name="Ntilde" horiz-adv-x="692" d="M593 20Q593 0 574 0H520Q505 0 497 15L199 579Q171 633 162 653H139Q140 628 140 578V0H99V670Q99 690 119 690H169Q186 690 193 675L483 124Q505 84 517 60L528 38H553L552 132V690H593V20ZM302
869T319 861T360 836Q382 820 398 812T437 804Q463 804 474 818T485 864H508Q511 818 490 794T432 772Q408 774 390 783T349 808Q327 823 313 830T280 837Q256 837 245 822T234 774H211Q209 819 227 844T279 869Q302 869 319 861Z" />
<glyph unicode="&#xd2;" glyph-name="Ograve" horiz-adv-x="664" d="M429 702T485 668T566 557T591 345Q591 211 566 134T485 22T332 -12Q235 -12 179 22T97 133T72 345Q72 479 97 556T178 668T332 702Q429 702 485 668ZM250 665T204 635T136 535T115 345Q115
224 136 155T203 56T332 25Q414 25 460 55T527 155T548 345Q548 466 528 535T461 634T332 665Q250 665 204 635ZM376 754L358 734L195 870L221 899L376 754Z" />
<glyph unicode="&#xd3;" glyph-name="Oacute" horiz-adv-x="664" d="M429 702T485 668T566 557T591 345Q591 211 566 134T485 22T332 -12Q235 -12 179 22T97 133T72 345Q72 479 97 556T178 668T332 702Q429 702 485 668ZM250 665T204 635T136 535T115 345Q115
224 136 155T203 56T332 25Q414 25 460 55T527 155T548 345Q548 466 528 535T461 634T332 665Q250 665 204 635ZM460 871L297 736L279 755L434 901L460 871Z" />
<glyph unicode="&#xd4;" glyph-name="Ocircumflex" horiz-adv-x="664" d="M429 702T485 668T566 557T591 345Q591 211 566 134T485 22T332 -12Q235 -12 179 22T97 133T72 345Q72 479 97 556T178 668T332 702Q429 702 485 668ZM250 665T204 635T136 535T115 345Q115
224 136 155T203 56T332 25Q414 25 460 55T527 155T548 345Q548 466 528 535T461 634T332 665Q250 665 204 635ZM481 765L466 746L336 847H328L199 746L182 765L317 884H346L481 765Z" />
<glyph unicode="&#xd5;" glyph-name="Otilde" horiz-adv-x="664" d="M429 702T485 668T566 557T591 345Q591 211 566 134T485 22T332 -12Q235 -12 179 22T97 133T72 345Q72 479 97 556T178 668T332 702Q429 702 485 668ZM250 665T204 635T136 535T115 345Q115
224 136 155T203 56T332 25Q414 25 460 55T527 155T548 345Q548 466 528 535T461 634T332 665Q250 665 204 635ZM275 869T292 861T333 836Q355 820 371 812T410 804Q436 804 447 818T458 864H481Q484 818 463 794T405 772Q381 774 363 783T322 808Q300 823 286
830T253 837Q229 837 218 822T207 774H184Q182 819 200 844T252 869Q275 869 292 861Z" />
<glyph unicode="&#xd6;" glyph-name="Odieresis" horiz-adv-x="664" d="M429 702T485 668T566 557T591 345Q591 211 566 134T485 22T332 -12Q235 -12 179 22T97 133T72 345Q72 479 97 556T178 668T332 702Q429 702 485 668ZM250 665T204 635T136 535T115 345Q115
224 136 155T203 56T332 25Q414 25 460 55T527 155T548 345Q548 466 528 535T461 634T332 665Q250 665 204 635ZM265 859T265 845V789Q265 775 251 775H236Q223 775 223 789V845Q223 859 236 859H251Q265 859 265 845ZM442 859T442 845V789Q442 775 428 775H413Q400
775 400 789V845Q400 859 413 859H428Q442 859 442 845Z" />
<glyph unicode="&#xd7;" glyph-name="multiply" horiz-adv-x="487" d="M271 288L433 143L412 117L246 266L81 117L60 143L222 288L60 433L81 459L247 310L412 459L433 434L271 288Z" />
<glyph unicode="&#xd8;" glyph-name="Oslash" horiz-adv-x="664" d="M544 628T567 552T591 345Q591 211 566 134T485 22T332 -12Q241 -12 187 17L154 -53L127 -40L162 34Q115 72 94 146T72 345Q72 479 97 556T178 668T332 702Q414 702 464 679L494 743L522 731L491
664Q544 628 567 552ZM115 240T130 175T181 74L447 642Q404 665 332 665Q250 665 204 635T136 535T115 345Q115 240 130 175ZM414 25T460 55T527 155T548 345Q548 458 531 525T472 625L205 55Q251 25 332 25Q414 25 460 55Z" />
<glyph unicode="&#xd9;" glyph-name="Ugrave" horiz-adv-x="667" d="M573 257Q573 159 550 101T475 15T335 -12Q246 -12 194 15T118 100T94 257V690H135V257Q135 170 154 120T217 48T334 25Q407 25 450 47T512 120T532 257V690H573V257ZM378 754L360 734L197 870L223
899L378 754Z" />
<glyph unicode="&#xda;" glyph-name="Uacute" horiz-adv-x="667" d="M573 257Q573 159 550 101T475 15T335 -12Q246 -12 194 15T118 100T94 257V690H135V257Q135 170 154 120T217 48T334 25Q407 25 450 47T512 120T532 257V690H573V257ZM462 871L299 736L281 755L436
901L462 871Z" />
<glyph unicode="&#xdb;" glyph-name="Ucircumflex" horiz-adv-x="667" d="M573 257Q573 159 550 101T475 15T335 -12Q246 -12 194 15T118 100T94 257V690H135V257Q135 170 154 120T217 48T334 25Q407 25 450 47T512 120T532 257V690H573V257ZM483 765L468 746L338
847H330L201 746L184 765L319 884H348L483 765Z" />
<glyph unicode="&#xdc;" glyph-name="Udieresis" horiz-adv-x="667" d="M573 257Q573 159 550 101T475 15T335 -12Q246 -12 194 15T118 100T94 257V690H135V257Q135 170 154 120T217 48T334 25Q407 25 450 47T512 120T532 257V690H573V257ZM267 859T267 845V789Q267
775 253 775H238Q225 775 225 789V845Q225 859 238 859H253Q267 859 267 845ZM444 859T444 845V789Q444 775 430 775H415Q402 775 402 789V845Q402 859 415 859H430Q444 859 444 845Z" />
<glyph unicode="&#xdd;" glyph-name="Yacute" horiz-adv-x="548" d="M295 253V0H253V255L19 690H64L235 368L271 297H277L312 367L483 690H528L295 253ZM402 868L239 733L221 752L376 898L402 868Z" />
<glyph unicode="&#xde;" glyph-name="Thorn" horiz-adv-x="585" d="M402 558T446 540T509 477T529 351Q529 269 510 225T447 162T327 144Q210 144 140 151V0H99V690H140V554Q209 558 324 558Q402 558 446 540ZM387 182T421 196T471 247T487 351Q487 419 472 456T421
507T324 522Q218 522 140 520V181H324Q387 182 421 196Z" />
<glyph unicode="&#xdf;" glyph-name="germandbls" horiz-adv-x="657" d="M564 231T587 204T610 123Q610 66 591 37T537 -2T446 -11Q357 -11 282 0L285 30Q352 23 442 23Q490 24 516 31T556 59T570 124Q570 168 553 186T497 217L372 259Q329 274 307 298T285 365Q285
401 298 422T334 455T400 483Q410 486 430 494Q475 511 491 532T507 597Q507 643 465 661T333 680Q265 680 229 668T177 625T161 532V0H121V448H34V478L121 482V534Q121 613 147 652T216 702T332 714Q440 714 492 689T544 598Q544 543 523 516T446 467L413 455Q377
442 360 434T334 410T324 366Q324 333 340 317T390 289L515 247Q564 231 587 204Z" />
<glyph unicode="&#xe0;" glyph-name="agrave" horiz-adv-x="541" d="M382 494T418 461T454 354V0H424L417 90Q381 54 318 24T193 -7Q131 -7 97 25T62 118V178Q62 233 93 263T182 293H414V354Q414 404 390 431T307 458Q221 458 86 443L82 473L105 476Q223 494 312
494Q382 494 418 461ZM252 30T312 56T414 122V261L186 258Q103 257 103 175V121Q103 30 202 30Q252 30 312 56ZM312 572L294 552L131 688L157 717L312 572Z" />
<glyph unicode="&#xe1;" glyph-name="aacute" horiz-adv-x="541" d="M382 494T418 461T454 354V0H424L417 90Q381 54 318 24T193 -7Q131 -7 97 25T62 118V178Q62 233 93 263T182 293H414V354Q414 404 390 431T307 458Q221 458 86 443L82 473L105 476Q223 494 312
494Q382 494 418 461ZM252 30T312 56T414 122V261L186 258Q103 257 103 175V121Q103 30 202 30Q252 30 312 56ZM395 689L232 554L214 573L369 719L395 689Z" />
<glyph unicode="&#xe2;" glyph-name="acircumflex" horiz-adv-x="541" d="M382 494T418 461T454 354V0H424L417 90Q381 54 318 24T193 -7Q131 -7 97 25T62 118V178Q62 233 93 263T182 293H414V354Q414 404 390 431T307 458Q221 458 86 443L82 473L105 476Q223
494 312 494Q382 494 418 461ZM252 30T312 56T414 122V261L186 258Q103 257 103 175V121Q103 30 202 30Q252 30 312 56ZM417 839L402 820L272 921H264L135 820L118 839L253 958H282L417 839Z" />
<glyph unicode="&#xe3;" glyph-name="atilde" horiz-adv-x="541" d="M382 494T418 461T454 354V0H424L417 90Q381 54 318 24T193 -7Q131 -7 97 25T62 118V178Q62 233 93 263T182 293H414V354Q414 404 390 431T307 458Q221 458 86 443L82 473L105 476Q223 494 312
494Q382 494 418 461ZM252 30T312 56T414 122V261L186 258Q103 257 103 175V121Q103 30 202 30Q252 30 312 56ZM211 944T228 936T269 911Q291 895 307 887T346 879Q372 879 383 893T394 939H417Q420 893 399 869T341 847Q317 849 299 858T258 883Q236 898 222 905T189
912Q165 912 154 897T143 849H120Q118 894 136 919T188 944Q211 944 228 936Z" />
<glyph unicode="&#xe4;" glyph-name="adieresis" horiz-adv-x="541" d="M382 494T418 461T454 354V0H424L417 90Q381 54 318 24T193 -7Q131 -7 97 25T62 118V178Q62 233 93 263T182 293H414V354Q414 404 390 431T307 458Q221 458 86 443L82 473L105 476Q223 494
312 494Q382 494 418 461ZM252 30T312 56T414 122V261L186 258Q103 257 103 175V121Q103 30 202 30Q252 30 312 56ZM201 678T201 664V608Q201 594 187 594H172Q159 594 159 608V664Q159 678 172 678H187Q201 678 201 664ZM378 678T378 664V608Q378 594 364 594H349Q336
594 336 608V664Q336 678 349 678H364Q378 678 378 664Z" />
<glyph unicode="&#xe5;" glyph-name="aring" horiz-adv-x="541" d="M382 494T418 461T454 354V0H424L417 90Q381 54 318 24T193 -7Q131 -7 97 25T62 118V178Q62 233 93 263T182 293H414V354Q414 404 390 431T307 458Q221 458 86 443L82 473L105 476Q223 494 312
494Q382 494 418 461ZM252 30T312 56T414 122V261L186 258Q103 257 103 175V121Q103 30 202 30Q252 30 312 56ZM310 989T339 961T368 892Q368 853 339 824T269 794Q228 794 199 822T170 892Q170 932 199 960T269 989Q310 989 339 961ZM238 964T218 944T198 892Q198
860 218 840T269 819Q299 819 319 839T340 892Q340 923 320 943T269 964Q238 964 218 944Z" />
<glyph unicode="&#xe6;" glyph-name="ae" horiz-adv-x="878" d="M721 24T803 36L808 8Q782 -1 729 -6T633 -12Q553 -12 505 14T435 99Q395 59 328 26T193 -7Q131 -7 97 25T62 118V178Q62 233 93 263T182 293H414V354Q414 404 390 431T307 458Q221 458 86 443L82
473L105 476Q223 494 312 494Q421 494 446 414Q470 456 513 475T625 494Q724 494 771 457T819 345Q819 278 787 250T680 221H456Q458 146 478 104T536 43T638 24Q721 24 803 36ZM563 458T527 439T474 375T456 254H674Q732 254 756 276T778 350Q777 405 740 431T626
458Q563 458 527 439ZM254 30T317 57T426 126Q416 169 414 228V261L186 258Q103 257 103 175V121Q103 30 202 30Q254 30 317 57Z" />
<glyph unicode="&#xe7;" glyph-name="ccedilla" horiz-adv-x="481" d="M374 494T428 475L421 448Q395 453 359 455T294 458Q224 458 184 439T125 372T107 241Q107 157 125 110T183 44T294 24Q378 24 433 35L439 7Q366 -12 288 -12Q206 -12 158 12T87 92T65 241Q65
335 87 390T157 469T287 494Q374 494 428 475ZM295 -56T316 -70T338 -122Q338 -172 305 -204T216 -236Q208 -236 192 -234L198 -211Q247 -213 276 -188T306 -126Q306 -101 293 -91T247 -80L252 -59Q295 -56 316 -70Z" />
<glyph unicode="&#xe8;" glyph-name="egrave" horiz-adv-x="530" d="M372 24T454 36L459 8Q433 -1 380 -6T284 -12Q205 -12 158 13T88 94T65 243Q65 336 86 391T153 470T276 494Q375 494 422 457T470 344Q470 282 445 252T364 221H107Q109 146 129 104T187 43T289
24Q372 24 454 36ZM215 458T178 439T125 375T107 254H358Q398 254 414 278T429 350Q428 406 392 432T278 458Q215 458 178 439ZM321 572L303 552L140 688L166 717L321 572Z" />
<glyph unicode="&#xe9;" glyph-name="eacute" horiz-adv-x="530" d="M372 24T454 36L459 8Q433 -1 380 -6T284 -12Q205 -12 158 13T88 94T65 243Q65 336 86 391T153 470T276 494Q375 494 422 457T470 344Q470 282 445 252T364 221H107Q109 146 129 104T187 43T289
24Q372 24 454 36ZM215 458T178 439T125 375T107 254H358Q398 254 414 278T429 350Q428 406 392 432T278 458Q215 458 178 439ZM405 689L242 554L224 573L379 719L405 689Z" />
<glyph unicode="&#xea;" glyph-name="ecircumflex" horiz-adv-x="530" d="M372 24T454 36L459 8Q433 -1 380 -6T284 -12Q205 -12 158 13T88 94T65 243Q65 336 86 391T153 470T276 494Q375 494 422 457T470 344Q470 282 445 252T364 221H107Q109 146 129 104T187
43T289 24Q372 24 454 36ZM215 458T178 439T125 375T107 254H358Q398 254 414 278T429 350Q428 406 392 432T278 458Q215 458 178 439ZM427 839L412 820L282 921H274L145 820L128 839L263 958H292L427 839Z" />
<glyph unicode="&#xeb;" glyph-name="edieresis" horiz-adv-x="530" d="M372 24T454 36L459 8Q433 -1 380 -6T284 -12Q205 -12 158 13T88 94T65 243Q65 336 86 391T153 470T276 494Q375 494 422 457T470 344Q470 282 445 252T364 221H107Q109 146 129 104T187
43T289 24Q372 24 454 36ZM215 458T178 439T125 375T107 254H358Q398 254 414 278T429 350Q428 406 392 432T278 458Q215 458 178 439ZM210 678T210 664V608Q210 594 196 594H181Q168 594 168 608V664Q168 678 181 678H196Q210 678 210 664ZM387 678T387 664V608Q387
594 373 594H358Q345 594 345 608V664Q345 678 358 678H373Q387 678 387 664Z" />
<glyph unicode="&#xec;" glyph-name="igrave" horiz-adv-x="228" d="M134 0H94V482H134V0ZM412 573L394 553L231 689L257 718L412 573Z" />
<glyph unicode="&#xed;" glyph-name="iacute" horiz-adv-x="228" d="M134 0H94V482H134V0ZM240 690L77 555L59 574L214 720L240 690Z" />
<glyph unicode="&#xee;" glyph-name="icircumflex" horiz-adv-x="228" d="M134 0H94V482H134V0ZM518 840L503 821L373 922H365L236 821L219 840L354 959H383L518 840Z" />
<glyph unicode="&#xef;" glyph-name="idieresis" horiz-adv-x="228" d="M134 0H94V482H134V0ZM301 678T301 664V608Q301 594 287 594H272Q259 594 259 608V664Q259 678 272 678H287Q301 678 301 664ZM478 678T478 664V608Q478 594 464 594H449Q436 594 436 608V664Q436
678 449 678H464Q478 678 478 664Z" />
<glyph unicode="&#xf0;" glyph-name="eth" horiz-adv-x="551" d="M474 521T474 280Q474 188 460 127T402 27T271 -12Q166 -12 116 43T66 220Q66 330 113 388T267 447Q348 447 426 397Q404 536 324 604L235 541L219 563L301 621Q230 669 117 669L124 698Q247 702
331 643L414 702L430 679L354 625Q474 521 474 280ZM340 23T375 54T422 141T434 286Q434 334 430 367Q387 392 349 402T266 412Q180 412 144 362T108 220Q108 114 147 69T272 23Q340 23 375 54Z" />
<glyph unicode="&#xf1;" glyph-name="ntilde" horiz-adv-x="573" d="M420 494T453 461T486 362V0H446V354Q446 408 422 433T347 458Q298 458 251 437T130 366V0H91V482H123L127 397Q248 494 356 494Q420 494 453 461ZM238 944T255 936T296 911Q318 895 334 887T373
879Q399 879 410 893T421 939H444Q447 893 426 869T368 847Q344 849 326 858T285 883Q263 898 249 905T216 912Q192 912 181 897T170 849H147Q145 894 163 919T215 944Q238 944 255 936Z" />
<glyph unicode="&#xf2;" glyph-name="ograve" horiz-adv-x="562" d="M361 494T407 469T475 390T496 241Q496 147 475 92T408 13T281 -12Q201 -12 155 12T87 92T66 241Q66 335 87 389T154 469T281 494Q361 494 407 469ZM216 458T179 438T125 371T108 241Q108 158
124 111T178 44T281 23Q346 23 383 43T438 111T455 241Q455 324 438 371T384 438T281 458Q216 458 179 438ZM324 572L306 552L143 688L169 717L324 572Z" />
<glyph unicode="&#xf3;" glyph-name="oacute" horiz-adv-x="562" d="M361 494T407 469T475 390T496 241Q496 147 475 92T408 13T281 -12Q201 -12 155 12T87 92T66 241Q66 335 87 389T154 469T281 494Q361 494 407 469ZM216 458T179 438T125 371T108 241Q108 158
124 111T178 44T281 23Q346 23 383 43T438 111T455 241Q455 324 438 371T384 438T281 458Q216 458 179 438ZM407 689L244 554L226 573L381 719L407 689Z" />
<glyph unicode="&#xf4;" glyph-name="ocircumflex" horiz-adv-x="562" d="M361 494T407 469T475 390T496 241Q496 147 475 92T408 13T281 -12Q201 -12 155 12T87 92T66 241Q66 335 87 389T154 469T281 494Q361 494 407 469ZM216 458T179 438T125 371T108 241Q108
158 124 111T178 44T281 23Q346 23 383 43T438 111T455 241Q455 324 438 371T384 438T281 458Q216 458 179 438ZM429 838L414 819L284 920H276L147 819L130 838L265 957H294L429 838Z" />
<glyph unicode="&#xf5;" glyph-name="otilde" horiz-adv-x="562" d="M361 494T407 469T475 390T496 241Q496 147 475 92T408 13T281 -12Q201 -12 155 12T87 92T66 241Q66 335 87 389T154 469T281 494Q361 494 407 469ZM216 458T179 438T125 371T108 241Q108 158
124 111T178 44T281 23Q346 23 383 43T438 111T455 241Q455 324 438 371T384 438T281 458Q216 458 179 438ZM223 943T240 935T281 910Q303 894 319 886T358 878Q384 878 395 892T406 938H429Q432 892 411 868T353 846Q329 848 311 857T270 882Q248 897 234 904T201
911Q177 911 166 896T155 848H132Q130 893 148 918T200 943Q223 943 240 935Z" />
<glyph unicode="&#xf6;" glyph-name="odieresis" horiz-adv-x="562" d="M361 494T407 469T475 390T496 241Q496 147 475 92T408 13T281 -12Q201 -12 155 12T87 92T66 241Q66 335 87 389T154 469T281 494Q361 494 407 469ZM216 458T179 438T125 371T108 241Q108
158 124 111T178 44T281 23Q346 23 383 43T438 111T455 241Q455 324 438 371T384 438T281 458Q216 458 179 438ZM213 933T213 919V863Q213 849 199 849H184Q171 849 171 863V919Q171 933 184 933H199Q213 933 213 919ZM390 933T390 919V863Q390 849 376 849H361Q348
849 348 863V919Q348 933 361 933H376Q390 933 390 919Z" />
<glyph unicode="&#xf7;" glyph-name="divide" horiz-adv-x="584" d="M314 508T314 491V432Q314 415 297 415H284Q267 415 267 432V491Q267 508 284 508H297Q314 508 314 491ZM503 279H81V312H503V279ZM314 176T314 159V100Q314 83 297 83H284Q267 83 267 100V159Q267
176 284 176H297Q314 176 314 159Z" />
<glyph unicode="&#xf8;" glyph-name="oslash" horiz-adv-x="562" d="M451 449T473 394T496 241Q496 147 475 92T408 13T281 -12Q220 -12 181 1L150 -65L125 -53L155 12Q108 37 87 92T66 241Q66 335 87 389T154 469T281 494Q336 494 375 482L404 544L428 533L400
473Q451 449 473 394ZM108 161T123 115T172 47L359 448Q329 458 281 458Q216 458 179 438T125 371T108 241Q108 161 123 115ZM346 23T383 43T438 111T455 241Q455 324 439 370T384 438L197 35Q230 23 281 23Q346 23 383 43Z" />
<glyph unicode="&#xf9;" glyph-name="ugrave" horiz-adv-x="563" d="M472 482V0H441L437 83Q319 -12 217 -12Q153 -12 120 21T87 120V482H127V128Q126 74 151 49T228 24Q274 24 318 45T432 114V482H472ZM325 573L307 553L144 689L170 718L325 573Z" />
<glyph unicode="&#xfa;" glyph-name="uacute" horiz-adv-x="563" d="M472 482V0H441L437 83Q319 -12 217 -12Q153 -12 120 21T87 120V482H127V128Q126 74 151 49T228 24Q274 24 318 45T432 114V482H472ZM408 690L245 555L227 574L382 720L408 690Z" />
<glyph unicode="&#xfb;" glyph-name="ucircumflex" horiz-adv-x="563" d="M472 482V0H441L437 83Q319 -12 217 -12Q153 -12 120 21T87 120V482H127V128Q126 74 151 49T228 24Q274 24 318 45T432 114V482H472ZM430 840L415 821L285 922H277L148 821L131 840L266
959H295L430 840Z" />
<glyph unicode="&#xfc;" glyph-name="udieresis" horiz-adv-x="563" d="M472 482V0H441L437 83Q319 -12 217 -12Q153 -12 120 21T87 120V482H127V128Q126 74 151 49T228 24Q274 24 318 45T432 114V482H472ZM214 679T214 665V609Q214 595 200 595H185Q172 595 172
609V665Q172 679 185 679H200Q214 679 214 665ZM391 679T391 665V609Q391 595 377 595H362Q349 595 349 609V665Q349 679 362 679H377Q391 679 391 665Z" />
<glyph unicode="&#xfd;" glyph-name="yacute" horiz-adv-x="512" d="M485 482L271 -42Q243 -112 205 -153T101 -209L95 -184Q150 -164 181 -127T235 -34L249 0H236Q224 0 219 12L27 482H70L228 87Q232 78 237 65T249 33H263L284 88L443 482H485ZM386 690L223 555L205
574L360 720L386 690Z" />
<glyph unicode="&#xfe;" glyph-name="thorn" horiz-adv-x="565" d="M386 494T424 469T479 388T497 240Q497 147 480 93T424 13T322 -12Q228 -12 127 40Q130 17 130 -21V-53V-208H91V700H130V505V472Q130 433 127 410Q178 452 225 473T323 494Q386 494 424 469ZM366
23T397 44T442 112T456 240Q456 321 442 368T398 437T316 458Q273 458 230 439T130 376V69Q190 45 231 34T315 23Q366 23 397 44Z" />
<glyph unicode="&#xff;" glyph-name="ydieresis" horiz-adv-x="512" d="M485 482L271 -42Q243 -112 205 -153T101 -209L95 -184Q150 -164 181 -127T235 -34L249 0H236Q224 0 219 12L27 482H70L228 87Q232 78 237 65T249 33H263L284 88L443 482H485ZM191 678T191
664V608Q191 594 177 594H162Q149 594 149 608V664Q149 678 162 678H177Q191 678 191 664ZM368 678T368 664V608Q368 594 354 594H339Q326 594 326 608V664Q326 678 339 678H354Q368 678 368 664Z" />
<glyph unicode="&#x2013;" glyph-name="endash" horiz-adv-x="615" d="M533 235H82V268H533V235Z" />
<glyph unicode="&#x2014;" glyph-name="emdash" horiz-adv-x="923" d="M841 235H82V268H841V235Z" />
<glyph unicode="&#x2018;" glyph-name="quoteleft" horiz-adv-x="202" d="M86 519T83 523T78 536L79 599Q81 672 100 731L119 724Q113 666 113 612Q118 612 121 609T124 598L123 536V533Q123 519 107 519H95Q86 519 83 523Z" />
<glyph unicode="&#x2019;" glyph-name="quoteright" horiz-adv-x="200" d="M116 722T119 718T124 705L123 642Q121 569 102 510L83 517Q89 577 89 629Q84 629 81 633T78 643V705Q78 722 94 722H107Q116 722 119 718Z" />
<glyph unicode="&#x201a;" glyph-name="quotesinglbase" horiz-adv-x="213" d="M131 93T131 76V13Q130 -19 124 -54T108 -119L89 -112Q95 -52 95 0Q90 0 86 4T83 14L84 76Q84 93 101 93H114Q131 93 131 76Z" />
<glyph unicode="&#x201c;" glyph-name="quotedblleft" horiz-adv-x="326" d="M86 519T83 523T78 536L79 599Q81 672 100 731L119 724Q113 666 113 612Q118 612 121 609T124 598L123 536V533Q123 519 107 519H95Q86 519 83 523ZM210 519T207 523T202 536L203 599Q205
672 224 731L243 724Q237 666 237 612Q242 612 245 609T248 598L247 536V533Q247 519 231 519H219Q210 519 207 523Z" />
<glyph unicode="&#x201d;" glyph-name="quotedblright" horiz-adv-x="324" d="M116 722T119 718T124 705L123 642Q121 569 102 510L83 517Q89 577 89 629Q84 629 81 633T78 643V705Q78 722 94 722H107Q116 722 119 718ZM240 722T243 718T248 705L247 642Q245 569
226 510L207 517Q213 577 213 629Q208 629 205 633T202 643V705Q202 722 218 722H231Q240 722 243 718Z" />
<glyph unicode="&#x201e;" glyph-name="quotedblbase" horiz-adv-x="336" d="M129 93T129 76V13Q127 -61 107 -119L89 -112Q94 -62 94 0Q89 0 86 4T83 14L84 76Q84 93 100 93H113Q129 93 129 76ZM253 93T253 76V13Q252 -18 247 -54T231 -119L213 -112Q218 -62
218 0Q213 0 210 4T207 14L208 76Q208 93 224 93H237Q253 93 253 76Z" />
<glyph unicode="&#x2022;" glyph-name="bullet" horiz-adv-x="354" d="M222 342T237 327T252 274V263Q252 223 237 208T183 193H173Q133 193 118 208T102 263V274Q102 312 117 327T173 342H183Q222 342 237 327Z" />
<glyph unicode="&#x2039;" glyph-name="guilsinglleft" horiz-adv-x="240" d="M208 440L65 251L209 59L188 44L25 245V257L187 455L208 440Z" />
<glyph unicode="&#x203a;" glyph-name="guilsinglright" horiz-adv-x="242" d="M216 257V245L52 44L32 59L175 251L33 440L53 455L216 257Z" />
</font>
</defs>
</svg>
