<svg xmlns="http://www.w3.org/2000/svg" viewBox="0 0 60 60"><defs><style>.cls-1{fill:#fff;}</style></defs><g id="Handshake"><polygon class="cls-1" points="10.58 13.75 0.32 32.45 1.36 32.92 11.76 14.51 10.58 13.75"/><polygon class="cls-1" points="0.97 31.26 0.32 32.45 6.73 35.39 16.74 17.32 11.12 14.12 10.58 15.02 15.1 17.72 6.37 33.79 0.97 31.26"/><path class="cls-1" d="M47.6,18.62a21.92,21.92,0,0,0-2.35.8c-1.52.66-5.18-.13-6.65-.34-2.06-.29-5.53-1.57-6.56-1.41-1.28.19-2.6,1.32-4.2,1.94s-3.19.39-4,1.29c-1.12,1.23-.89,2.29-1.43,3s-1.93,1.55-2.17,2.35c-.29,1,.68,1.54,1.31,1.55a5,5,0,0,0,3.28-1.26c1.27-1.1,3.5-2.89,4.29-3.07a7.17,7.17,0,0,1,3.67.5c1.12.78,2,2.66,3.27,3.35,1.7.88,8.31,5.37,9.67,6.41,1,.74,1.78,1.69,1.92,1.77.66.34,1.05.18,2.07-.73a11.3,11.3,0,0,0,2.21-2.91l.65.68a21.08,21.08,0,0,1-2.21,2.93c-.73.77-1.73,1.86-2.71,1.32-.45-.25-1.43-1.35-2.54-2.23-1.33-1.06-7.1-5.06-9.44-6.38-2.54-1.43-2.58-2.83-3.41-3.39a2.89,2.89,0,0,0-2.9-.23c-.43.42-2.52,1.79-3.83,2.7s-2.3,1.7-4.08,1.47-2.66-1.15-2.28-2.47,1.35-1.59,2.2-2.75c.65-.88.72-2.16,1.61-3.25s2.47-.8,4.46-1.59,2.82-2.25,4.82-2.06,4.88,1.18,6.78,1.49,4.5.88,6,.44A14.77,14.77,0,0,0,47.7,17.4Z"/><path class="cls-1" d="M16.09,18.5a9.27,9.27,0,0,0,3.37,1.4c1.26,0,3.1-.49,3.79-.42a6.46,6.46,0,0,1,1.37.23l-.79.8a2.07,2.07,0,0,1-.79.12,32.29,32.29,0,0,1-3.77.22,15.67,15.67,0,0,1-3.83-1.56Z"/><path class="cls-1" d="M8.18,32.41A4.3,4.3,0,0,1,9.69,33a53.75,53.75,0,0,1,4.62,4.23l-.54.63s-3.26-3.76-4.43-4.24A11.79,11.79,0,0,0,7.76,33Z"/><path class="cls-1" d="M37,34.59s1.92,1.26,3.1,2.15,2.67,2,3.13,2.49a15,15,0,0,0,1.53,1.4,1.79,1.79,0,0,0,2.08-.09,2.58,2.58,0,0,0,.94-2.24,6.38,6.38,0,0,0-1.3-2.55h.82l.33.24a3.4,3.4,0,0,1,1.19,2.3,3.35,3.35,0,0,1-.91,2.65c-.9.71-2,1.53-3.37.67A10.12,10.12,0,0,1,42.62,40c-.83-.76-2.45-1.91-3-2.51s-3-2.33-3-2.33Z"/><path class="cls-1" d="M34.65,40.14a9.48,9.48,0,0,1,1.9,1.25c.8.63,3.17,2.81,3.73,2.94a2.34,2.34,0,0,0,2.16-.52,3.73,3.73,0,0,0,.94-2A1.78,1.78,0,0,0,42.62,40c-.78-.56,1-.32,1-.32a4.83,4.83,0,0,1,.74,2.48,3.66,3.66,0,0,1-1.46,2.49,2.92,2.92,0,0,1-3.13.43,23.54,23.54,0,0,1-3.59-2.72c-.56-.49-1.83-1.72-1.83-1.72Z"/><path class="cls-1" d="M30.5,43.38l5,3.46a2.65,2.65,0,0,0,1.47.42,2.31,2.31,0,0,0,1.83-1,1.56,1.56,0,0,0,.08-1.75c-.44-.62.81-.09.81-.09a4.19,4.19,0,0,1-.2,2.24A3.47,3.47,0,0,1,37.3,48a3.36,3.36,0,0,1-2.23-.39c-1.06-.69-4.87-3.76-4.87-3.76Z"/><path class="cls-1" d="M28.77,46.66a5.7,5.7,0,0,0,1.4,1.2c.74.4,2.2,1,3,.61s1.56-.71,1.42-1.26.89.09.89.09a2.72,2.72,0,0,1-1.91,1.82,4.4,4.4,0,0,1-3.78-.69c-1-.71-1.07-.92-1.07-.92Z"/><path class="cls-1" d="M29.35,47.32a3.11,3.11,0,0,0,0-2c-.42-1-.68-1.35-1.17-1.5a3.55,3.55,0,0,0-2.08-.19c-.6.28-.68.69-1.21,1.46s-1.06,1.45-1,2.17a2.69,2.69,0,0,0,1.7,1.89,5.52,5.52,0,0,0,2.62,0,2,2,0,0,0,1-1.43l-.56-.2a1.45,1.45,0,0,1-.68.92,3,3,0,0,1-2.25.08,2.24,2.24,0,0,1-1.21-1.36,4.23,4.23,0,0,1,.8-1.78c.33-.46.67-1.08.94-1.16a3.64,3.64,0,0,1,1.67.24,2.52,2.52,0,0,1,.75,1.06,3.6,3.6,0,0,1,.06,1.15C28.73,47,29.35,47.32,29.35,47.32Z"/><path class="cls-1" d="M25.64,43.89s1-1.33.37-2.11c-.44-.53-1.15-1.33-1.74-1.2s-2,1.5-2.26,1.79-1.26,1.44-1.22,2a2.82,2.82,0,0,0,1,1.82,2.54,2.54,0,0,0,2,.49,1.48,1.48,0,0,0,.6-.25l-.16.74a3.44,3.44,0,0,1-2.76-.42,3.2,3.2,0,0,1-1.37-2.42,5.45,5.45,0,0,1,1.32-2.36c.5-.55,1.89-2.14,2.91-2a3,3,0,0,1,2.18,1.33,2.33,2.33,0,0,1-.12,2.56Z"/><path class="cls-1" d="M20.39,44.35a4.79,4.79,0,0,1-2.9-.69c-1.41-1.08-.85-2.51-.21-3.55.26-.41,1.22-2.09,2.36-2.44a2.71,2.71,0,0,1,2.13.2A2.56,2.56,0,0,1,23.12,40a4.83,4.83,0,0,1-.71,1.75h-.83a2.36,2.36,0,0,0,.78-1.72,2.29,2.29,0,0,0-1-1.47,1.59,1.59,0,0,0-1.41-.14c-.55.21-1.14,1.13-1.87,2.17s-.66,2-.07,2.51a3.36,3.36,0,0,0,2.51.42Z"/><path class="cls-1" d="M17.37,41.12l-.08.83a6.06,6.06,0,0,1-2.35-.64c-.74-.53-1.7-1.63-1.63-2.5a2,2,0,0,1,.59-1.56,3,3,0,0,1,2.1-.76,3,3,0,0,1,2.4,2.71l-.91.58a1.88,1.88,0,0,0-1.7-2.34c-.45,0-1.34.16-1.43.42a1.55,1.55,0,0,0-.22,1,3.06,3.06,0,0,0,1.17,1.5C15.71,40.7,16.72,41.35,17.37,41.12Z"/><polygon class="cls-1" points="59.34 33.82 52.85 13.51 51.79 13.93 57.98 34.16 59.34 33.82"/><polygon class="cls-1" points="53.26 14.8 52.85 13.51 46.31 16.12 52.51 35.84 58.7 33.96 58.42 32.94 53.35 34.37 47.71 16.97 53.26 14.8"/></g></svg>