<svg xmlns="http://www.w3.org/2000/svg" viewBox="0 0 60 60"><defs><style>.cls-1{fill:#fff;}</style></defs><g id="Rathaus"><rect class="cls-1" x="30" y="58.98" width="29.22" height="1.02"/><rect class="cls-1" x="30" y="0.38" width="10" height="1.02"/><rect class="cls-1" x="30" y="7.21" width="10" height="1.02"/><rect class="cls-1" x="35.32" y="27.32" width="6.62" height="1.02"/><rect class="cls-1" x="58.2" y="40.31" width="1.02" height="19.69"/><rect class="cls-1" x="31.1" y="18.4" width="1.32" height="7.9"/><rect class="cls-1" x="39.38" y="30.54" width="1.13" height="6.4"/><rect class="cls-1" x="36.75" y="30.54" width="1.13" height="6.4"/><rect class="cls-1" x="31.1" y="31.34" width="1.32" height="6.51"/><rect class="cls-1" x="42.78" y="33.05" width="17.22" height="1.02"/><rect class="cls-1" x="42.78" y="36.82" width="17.22" height="1.02"/><rect class="cls-1" x="37" y="2.99" width="1.02" height="21.43"/><rect class="cls-1" x="32.02" y="2.99" width="1.14" height="2.66"/><rect class="cls-1" x="30" y="2.99" width="0.57" height="2.66"/><rect class="cls-1" x="34.41" y="2.99" width="1.19" height="2.66"/><path class="cls-1" d="M42,43.66c0-1.64.22-3,1.82-2.94,1.78,0,1.92,1.57,2,2.94s0,6.41,0,6.41H42S42,45.3,42,43.66Zm.79,5.47H45s0-4,0-5-.12-2.38-1.17-2.41S42.75,43,42.74,44.14,42.76,49.13,42.76,49.13Z"/><path class="cls-1" d="M47.23,43.7c0-1.64.23-3,1.82-2.94,1.78,0,1.92,1.57,2,2.94s0,6.41,0,6.41h-3.8S47.22,45.34,47.23,43.7ZM48,49.17h2.26s0-4,0-5-.13-2.39-1.18-2.42S48,43,48,44.19,48,49.17,48,49.17Z"/><path class="cls-1" d="M52.59,43.66c0-1.64.22-3,1.82-2.94,1.77,0,1.92,1.57,2,2.94s0,6.41,0,6.41h-3.8S52.58,45.3,52.59,43.66Zm.79,5.47h2.26s0-4,0-5-.12-2.38-1.18-2.41S53.37,43,53.36,44.14,53.38,49.13,53.38,49.13Z"/><path class="cls-1" d="M45.75,52.5V56H41.92V52.5Zm-3,2.88H45V53.11H42.7Z"/><path class="cls-1" d="M51,52.5V56H47.18V52.5Zm-3,2.88h2.28V53.11H48Z"/><path class="cls-1" d="M56.37,52.5V56H52.54V52.5Zm-3,2.88h2.27V53.11H53.32Z"/><rect class="cls-1" x="0.78" y="58.98" width="29.22" height="1.02"/><rect class="cls-1" x="20" y="0.38" width="10" height="1.02"/><rect class="cls-1" x="20" y="7.21" width="10" height="1.02"/><rect class="cls-1" x="18.06" y="27.32" width="6.62" height="1.02"/><rect class="cls-1" x="0.78" y="40.31" width="1.02" height="19.69"/><rect class="cls-1" x="27.57" y="18.4" width="1.32" height="7.9"/><rect class="cls-1" x="19.49" y="30.54" width="1.13" height="6.4"/><rect class="cls-1" x="22.13" y="30.54" width="1.13" height="6.4"/><rect class="cls-1" x="27.57" y="31.34" width="1.32" height="6.51"/><rect class="cls-1" y="33.05" width="17.22" height="1.02"/><rect class="cls-1" y="36.82" width="17.22" height="1.02"/><rect class="cls-1" x="21.97" y="2.99" width="1.02" height="21.43"/><rect class="cls-1" x="26.83" y="2.99" width="1.14" height="2.66"/><rect class="cls-1" x="29.43" y="2.99" width="0.57" height="2.66"/><rect class="cls-1" x="24.4" y="2.99" width="1.19" height="2.66"/><path class="cls-1" d="M18,43.66c0-1.64-.22-3-1.82-2.94-1.78,0-1.92,1.57-2,2.94s0,6.41,0,6.41H18S18,45.3,18,43.66Zm-.79,5.47H15s0-4,0-5,.12-2.38,1.17-2.41,1.08,1.23,1.09,2.41S17.24,49.13,17.24,49.13Z"/><path class="cls-1" d="M12.77,43.7c0-1.64-.23-3-1.82-2.94C9.17,40.8,9,42.33,9,43.7s0,6.41,0,6.41h3.8S12.78,45.34,12.77,43.7ZM12,49.17H9.72s0-4,0-5,.13-2.39,1.18-2.42S12,43,12,44.19,12,49.17,12,49.17Z"/><path class="cls-1" d="M7.41,43.66c0-1.64-.22-3-1.82-2.94-1.77,0-1.92,1.57-2,2.94s0,6.41,0,6.41h3.8S7.42,45.3,7.41,43.66Zm-.79,5.47H4.36s0-4,0-5,.12-2.38,1.18-2.41S6.63,43,6.64,44.14,6.62,49.13,6.62,49.13Z"/><path class="cls-1" d="M14.25,52.5V56h3.83V52.5Zm3.05,2.88H15V53.11H17.3Z"/><path class="cls-1" d="M9,52.5V56h3.83V52.5Zm3,2.88H9.76V53.11H12Z"/><path class="cls-1" d="M3.63,52.5V56H7.46V52.5Zm3.05,2.88H4.41V53.11H6.68Z"/><path class="cls-1" d="M30,9.79a3.67,3.67,0,1,0,3.67,3.67A3.67,3.67,0,0,0,30,9.79Zm0,6.26a2.6,2.6,0,1,1,2.59-2.59A2.59,2.59,0,0,1,30,16.05Z"/><path class="cls-1" d="M24.92,49.17l0,10.46H35.12l0-10.46Zm9.28,9.76H25.8l0-9.06h8.41Z"/><path class="cls-1" d="M24.93,43.57v6.3H35.16v-6.3s0-2.89-5.26-3C25,40.54,24.93,43.57,24.93,43.57Zm9.32,5.6H25.84s0-3.36,0-4.9,1.29-2.69,4.1-2.69c3,0,4.28.86,4.3,2.69C34.26,45.29,34.25,49.17,34.25,49.17Z"/><rect class="cls-1" x="29.49" y="49.31" width="1.13" height="9.67"/></g></svg>