<svg id="Police" xmlns="http://www.w3.org/2000/svg" viewBox="0 0 60 60"><defs><style>.cls-1{fill:#fff;}</style></defs><path class="cls-1" d="M30.16,34.7c5.81-.14,7-6.07,9-12.6a16.66,16.66,0,0,0,.6-6.94h.92A20.08,20.08,0,0,1,40,22.1c-2.14,7.44-3.49,13.33-9.88,13.33H30v-.73A.92.92,0,0,0,30.16,34.7Z"/><path class="cls-1" d="M38.91,25.72c.18.47.2.9,1.17,1a4.42,4.42,0,0,0,2.47-2.94,5.88,5.88,0,0,0,.15-2.51c-.17-.53-1.3-.55-1.64-.59s-.56,0-.89.63c0-.43-.3-.42-.35-.83a1.61,1.61,0,0,1,1.34-.65c.56.06,1.88.17,2.17.89a6.58,6.58,0,0,1,0,3.15c-.41,2.38-2.77,3.83-3.31,3.66-1.1-.36-1.13-.33-1.39-.64C38.7,26.5,38.84,26.09,38.91,25.72Z"/><path class="cls-1" d="M30,10V9C37.08,9.3,40.77,11,40.77,11l0,4.15s-6.2.26-10.74.26v-.95c4.76.09,9.83-.27,9.83-.27V11.59A44.1,44.1,0,0,0,30,10Z"/><path class="cls-1" d="M30,18.56v1.23c2.7,0,5.63-.11,7.44-1.15,3.28-1.88,3.15-3.19,3.15-3.19l-.5-1s-.05,1.42-3.12,3C35.3,18.27,31.78,18.56,30,18.56Z"/><path class="cls-1" d="M40.43,14.19S46,10.1,46.31,9.31s-4.14-6.7-4.46-6.73C38.31,2.22,30,.33,30,.33v1S37.79,3,41.37,3.4c.89.1,4,5.29,3.89,5.78s-5.08,4.09-5.08,4.09Z"/><path class="cls-1" d="M30,11.19a1,1,0,0,1,0,2Z"/><path class="cls-1" d="M30,38.74a3.51,3.51,0,0,1,2.74,1.2c.94,1-.09,3-.56,3.66S31.12,45.21,30,45.21v-.78c.95-.07,1.05-.57,1.5-1.12s1.19-2.14.78-2.72A2.77,2.77,0,0,0,30,39.47Z"/><path class="cls-1" d="M31.5,44.07a43.43,43.43,0,0,1,1.2,4.83c1,5.46,1.65,8.58,1.83,11.2L33.19,60c.33-2.82-.7-7.07-1.39-10.81a34.71,34.71,0,0,0-1.16-4.87Z"/><path class="cls-1" d="M30.74,39.56s6.86-1.33,5.54-8.13a7.48,7.48,0,0,0,.82-.87c0,.05,0,.1,0,.15,1,8.43-5.12,9.23-5.12,9.23S30.8,39.46,30.74,39.56Z"/><polygon class="cls-1" points="37.15 32.03 39.86 36.39 38.92 46.79 31.95 40.02 32.66 39.67 38.23 44.76 38.78 36.5 36.89 33.48 37.15 32.03"/><path class="cls-1" d="M53.35,41.68a62.63,62.63,0,0,0-7.46-3.27c-2.55-.75-7.08-1.58-7.08-1.58l.42,1.48a22.92,22.92,0,0,1,6.35,1.24c3.1,1.15,6.79,2.9,6.79,2.9Z"/><path class="cls-1" d="M53.35,41.68c2,1.38,3.41,2.63,3.79,4.24a63.1,63.1,0,0,1,1,14.18h-.87c.22-4.92-.54-12.38-1.08-13.82-.9-2.37-2.23-2.53-3.86-3.83Z"/><path class="cls-1" d="M55.41,44.59a48.82,48.82,0,0,0-3.84,7A26,26,0,0,0,50.85,60H49.66c.22-3.46-.17-6.49,1.42-10.22a30.55,30.55,0,0,1,3.64-6Z"/><polygon class="cls-1" points="53.54 45.65 45.16 41.06 44.06 38.41 42.61 38.07 44.19 41.87 52.97 46.66 53.54 45.65"/><path class="cls-1" d="M30,4l3,1.33a5.05,5.05,0,0,1-.94,2.62A3.27,3.27,0,0,1,30,8.59V7.77A2.9,2.9,0,0,0,31.75,7a2.15,2.15,0,0,0,.39-1.1L30,4.92Z"/><path class="cls-1" d="M29.84,34.7c-5.81-.14-7-6.07-9-12.6a16.66,16.66,0,0,1-.6-6.94h-.92A20.08,20.08,0,0,0,20,22.1c2.14,7.44,3.49,13.33,9.88,13.33H30v-.73A.92.92,0,0,1,29.84,34.7Z"/><path class="cls-1" d="M21.09,25.72c-.18.47-.2.9-1.17,1a4.42,4.42,0,0,1-2.47-2.94,5.88,5.88,0,0,1-.15-2.51c.17-.53,1.3-.55,1.64-.59s.56,0,.89.63c0-.43.3-.42.35-.83a1.61,1.61,0,0,0-1.34-.65c-.56.06-1.88.17-2.17.89a6.58,6.58,0,0,0,0,3.15c.41,2.38,2.77,3.83,3.31,3.66,1.1-.36,1.13-.33,1.39-.64C21.3,26.5,21.16,26.09,21.09,25.72Z"/><path class="cls-1" d="M30,10V9C22.92,9.3,19.23,11,19.23,11l0,4.15s6.2.26,10.74.26v-.95c-4.76.09-9.83-.27-9.83-.27V11.59A44.1,44.1,0,0,1,30,10Z"/><path class="cls-1" d="M30,18.56v1.23c-2.7,0-5.63-.11-7.44-1.15-3.28-1.88-3.15-3.19-3.15-3.19l.5-1s.05,1.42,3.12,3C24.7,18.27,28.22,18.56,30,18.56Z"/><path class="cls-1" d="M19.57,14.19S14,10.1,13.69,9.31s4.14-6.7,4.46-6.73C21.69,2.22,30,.33,30,.33v1S22.21,3,18.63,3.4c-.89.1-4,5.29-3.89,5.78s5.08,4.09,5.08,4.09Z"/><path class="cls-1" d="M30,11.19a1,1,0,0,0,0,2Z"/><path class="cls-1" d="M30,38.74a3.51,3.51,0,0,0-2.74,1.2c-.94,1,.09,3,.56,3.66s1.06,1.61,2.18,1.61v-.78c-.95-.07-1.05-.57-1.5-1.12s-1.19-2.14-.78-2.72A2.77,2.77,0,0,1,30,39.47Z"/><path class="cls-1" d="M28.5,44.07a43.43,43.43,0,0,0-1.2,4.83c-1,5.46-1.65,8.58-1.83,11.2l1.34-.1c-.33-2.82.7-7.07,1.39-10.81a34.71,34.71,0,0,1,1.16-4.87Z"/><path class="cls-1" d="M29.26,39.56s-6.86-1.33-5.54-8.13a7.48,7.48,0,0,1-.82-.87c0,.05,0,.1,0,.15-1,8.43,5.12,9.23,5.12,9.23S29.2,39.46,29.26,39.56Z"/><polygon class="cls-1" points="22.85 32.03 20.14 36.39 21.08 46.79 28.05 40.02 27.34 39.67 21.77 44.76 21.21 36.5 23.11 33.48 22.85 32.03"/><path class="cls-1" d="M6.65,41.68a62.63,62.63,0,0,1,7.46-3.27c2.55-.75,7.08-1.58,7.08-1.58l-.42,1.48a22.92,22.92,0,0,0-6.35,1.24c-3.1,1.15-6.79,2.9-6.79,2.9Z"/><path class="cls-1" d="M6.65,41.68c-2,1.38-3.41,2.63-3.79,4.24a63.1,63.1,0,0,0-1,14.18h.87c-.22-4.92.54-12.38,1.08-13.82.9-2.37,2.23-2.53,3.86-3.83Z"/><path class="cls-1" d="M4.59,44.59a48.82,48.82,0,0,1,3.84,7A26,26,0,0,1,9.15,60h1.19c-.22-3.46.17-6.49-1.42-10.22a30.55,30.55,0,0,0-3.64-6Z"/><polygon class="cls-1" points="6.46 45.65 14.84 41.06 15.94 38.41 17.39 38.07 15.81 41.87 7.03 46.66 6.46 45.65"/><path class="cls-1" d="M30,4,27,5.31a5.05,5.05,0,0,0,.94,2.62A3.27,3.27,0,0,0,30,8.59V7.77A2.9,2.9,0,0,1,28.25,7a2.15,2.15,0,0,1-.39-1.1l2.14-1Z"/><rect class="cls-1" x="37.21" y="56.55" width="9.7" height="1.31"/></svg>